<svg width="358" height="44" viewBox="0 0 358 44" fill="none" xmlns="http://www.w3.org/2000/svg">
<g clip-path="url(#clip0_1182_4662)">
<path d="M31.4275 17.4384C31.2664 16.6282 31.0672 15.8147 30.8386 15.0252C30.7921 14.8733 30.6892 14.7449 30.551 14.6663C30.4129 14.5878 30.2499 14.5651 30.0955 14.603C29.7498 14.6873 29.3863 14.6608 29.0565 14.5272C28.7267 14.3935 28.4473 14.1595 28.2578 13.8583C28.213 13.7872 28.1546 13.7256 28.0859 13.6771C28.0173 13.6286 27.9398 13.5941 27.8578 13.5756C27.7792 13.5583 27.698 13.5569 27.6189 13.5714C27.5398 13.5859 27.4643 13.616 27.397 13.6601C27.0079 13.9164 26.5652 14.08 26.1029 14.1384C25.6406 14.1968 25.1711 14.1483 24.7305 13.9968C24.2899 13.8454 23.8898 13.5948 23.5612 13.2645C23.2325 12.9342 22.984 12.533 22.8347 12.0916C22.784 11.9401 22.6769 11.8138 22.5357 11.7391C22.3945 11.6643 22.2299 11.6467 22.0761 11.69C21.8121 11.7568 21.5412 11.7926 21.2689 11.7967C20.6023 11.7967 18.8146 11.0762 18.3764 9.67997C18.3031 9.43866 18.2674 9.1875 18.2707 8.93533C18.2814 8.68253 18.3359 8.4335 18.4318 8.19933C18.4612 8.12464 18.4755 8.04488 18.474 7.96463C18.4725 7.88438 18.4551 7.80522 18.4229 7.7317C18.3907 7.65819 18.3442 7.59176 18.2863 7.53624C18.2283 7.48072 18.1599 7.4372 18.0851 7.40819C17.8868 7.32858 17.7058 7.21154 17.5518 7.06344C17.3704 6.88438 17.2324 6.66624 17.1482 6.42568C17.1073 6.30993 17.0327 6.20912 16.9338 6.1363C16.835 6.06349 16.7166 6.02204 16.5939 6.01731C16.4552 6.01043 16.2821 6.00179 16.109 6.00179C11.2782 5.93976 7.07962 7.49277 4.27884 10.3713C2.22467 12.4811 1.3707 14.8112 1.04852 15.6888C0.509608 17.1951 0.182103 18.7689 0.075348 20.3651C-0.0768031 22.1395 0.00472917 23.9261 0.317853 25.6792C0.647937 27.45 1.20083 29.1718 1.96334 30.8037C2.01528 30.9157 3.26759 33.5702 4.97889 34.7492C5.27132 34.9477 5.58724 35.1093 5.91942 35.2301C6.16929 35.3154 6.42775 35.3732 6.69019 35.4025C7.85413 35.5438 8.64218 35.0457 9.33854 34.6061C9.81854 34.3028 10.2738 34.0166 10.8265 33.9166C11.7532 33.765 12.3679 34.2614 13.0783 34.8267C13.7886 35.3921 14.6163 36.0574 15.8496 35.9713C16.9183 35.8954 17.4726 35.318 17.9593 34.8078C18.3923 34.3579 18.7993 33.9322 19.5441 33.8236C21.0321 33.6049 22.3328 34.8578 23.5937 36.0643C24.633 37.0554 25.6097 38 26.6301 38C26.8067 38.0003 26.9822 37.9718 27.1497 37.9155C27.9657 37.6449 28.4574 36.7469 29.4343 34.9611L29.4793 34.8801C29.9296 34.0549 30.3013 33.1893 30.5896 32.2946C31.8177 28.5784 31.9857 24.924 31.9995 23.5263C32.0198 21.4827 31.8281 19.4424 31.4275 17.4384ZM24.6412 33.4081C23.8028 32.386 22.7585 31.1122 20.9553 30.9019C20.7828 30.8821 20.6093 30.8723 20.4357 30.8726C20.2087 30.8731 19.9819 30.888 19.7567 30.9174C18.4127 31.0898 17.6592 31.7362 17.0547 32.2533C16.5575 32.679 16.1661 33.0134 15.5789 33.0533C14.8982 33.0981 14.4652 32.7085 13.9179 32.2207C13.3341 31.7034 12.6708 31.1038 11.564 30.9935C10.5594 30.8935 9.51321 31.2297 8.46703 31.9812C8.11251 32.2058 7.71149 32.3467 7.2944 32.3931C7.03732 32.4003 6.78133 32.357 6.54096 32.2655C6.49062 32.2441 6.44148 32.22 6.39376 32.1932C6.18043 32.0641 5.99208 31.8977 5.83777 31.7019C5.34758 31.1193 1.11246 25.7949 2.90882 18.3883L2.93656 18.2729C3.27255 16.8819 3.9758 13.9844 6.46997 11.6382C8.40373 9.81646 10.8862 8.68611 13.5299 8.42355L13.6165 8.41491C14.3093 8.34941 15.1754 8.26669 15.5218 8.80957C15.6549 9.02305 15.7372 9.26422 15.7625 9.51453C15.7781 9.59554 15.7937 9.6869 15.8162 9.79549C15.9442 10.4574 16.3705 12.088 17.5483 12.9274C18.2654 13.4447 19.2267 13.6289 20.4426 13.8685C20.5847 13.8961 20.6418 13.9047 20.6764 13.9099L20.7404 13.9237C21.4039 14.0961 21.6791 14.5201 21.9997 15.013C22.2664 15.425 22.5678 15.8921 23.129 16.2299C24.0677 16.7953 25.5539 16.9194 26.6555 16.5109L26.7629 16.4713C26.9626 16.376 27.1828 16.3316 27.4038 16.342C28.0135 16.3937 28.4776 17.2762 28.6318 17.5658C28.9104 18.1129 29.1221 18.6917 29.2623 19.2895C29.5174 20.3335 29.6653 21.4008 29.704 22.4748V22.6058C29.704 22.7385 29.7178 22.8626 29.7126 22.9816C29.6696 24.6173 29.515 26.2482 29.2502 27.863C28.7062 30.9397 27.5977 34.5681 26.2658 34.6681C25.7272 34.7267 25.2231 34.1114 24.6412 33.4081Z" fill="white"/>
<path d="M7.25285 17.9641C6.06288 17.9641 5.12934 19.5912 5.12934 21.6665C5.12934 23.7418 6.06267 25.369 7.25285 25.369C8.44303 25.369 9.37636 23.7418 9.37636 21.6665C9.37636 19.5912 8.44452 17.9641 7.25285 17.9641Z" fill="white"/>
<path d="M19.9646 17.9641C18.7744 17.9641 17.8411 19.5912 17.8411 21.6665C17.8411 23.7418 18.7744 25.369 19.9646 25.369C21.1547 25.369 22.0881 23.7418 22.0881 21.6665C22.0881 19.5912 21.1562 17.9641 19.9646 17.9641Z" fill="white"/>
</g>
<g clip-path="url(#clip1_1182_4662)">
<path d="M66.4317 29.6133C65.9449 29.3575 65.5276 28.9875 65.2149 28.5352C62.7519 25.0292 61.5 22.3961 61.5 20.7051C61.4946 18.9367 62.1785 17.2356 63.4063 15.9629C63.9999 15.3419 64.713 14.8474 65.503 14.5098C66.2929 14.1721 67.1429 13.998 68.002 13.998C68.8611 13.998 69.7111 14.1721 70.501 14.5098C71.2909 14.8474 72.0041 15.3419 72.5977 15.9629C73.8216 17.2376 74.5032 18.9379 74.4981 20.7051C74.4981 22.3961 73.2461 25.0292 70.7891 28.5352C70.3206 29.2175 69.618 29.7036 68.8145 29.9023C68.011 30.101 67.1622 29.9987 66.4297 29.6133H66.4317ZM64.4014 17C63.4421 17.9959 62.9078 19.3262 62.9121 20.709C62.9121 22.047 64.1345 24.5265 66.3535 27.6875C66.5398 27.9519 66.7869 28.1681 67.0733 28.3184C67.3593 28.4696 67.6775 28.5496 68.001 28.5508C68.3223 28.5495 68.6383 28.4694 68.9219 28.3184C69.2091 28.1669 69.4579 27.9511 69.6475 27.6875C71.8685 24.5275 73.0899 22.047 73.0899 20.709C73.0908 19.3247 72.5528 17.9945 71.5899 17C71.1263 16.5125 70.5685 16.1246 69.9502 15.8594C69.332 15.5941 68.666 15.457 67.9932 15.457C67.3204 15.457 66.6554 15.5941 66.0371 15.8594C65.4189 16.1246 64.8611 16.5125 64.3975 17H64.4014ZM67.4151 23.4492C66.834 23.3314 66.3001 23.0453 65.8799 22.627C65.4598 22.2079 65.1732 21.6736 65.0567 21.0918C64.9388 20.5095 65.0002 19.9047 65.2315 19.3574C65.4199 18.9012 65.7173 18.499 66.0987 18.1855C66.48 17.8721 66.9329 17.6571 67.417 17.5605C67.9011 17.464 68.4017 17.4896 68.8741 17.6328C69.3465 17.776 69.776 18.0338 70.125 18.3828C70.4741 18.7319 70.7319 19.1604 70.875 19.6328C71.0182 20.1052 71.0429 20.6058 70.9463 21.0898C70.8498 21.5739 70.6348 22.0269 70.3213 22.4082C70.0079 22.7895 69.6057 23.087 69.1494 23.2754C68.7821 23.4266 68.3885 23.5059 67.9912 23.5059C67.7984 23.5044 67.606 23.4837 67.417 23.4453L67.4151 23.4492ZM67.7051 19.0332C67.415 19.0921 67.1492 19.2355 66.9405 19.4453C66.7285 19.6529 66.5847 19.9197 66.5284 20.2109C66.4847 20.4285 66.4901 20.6539 66.544 20.8691C66.5979 21.0844 66.6989 21.2838 66.8399 21.4551C66.9809 21.6264 67.1585 21.7652 67.3594 21.8594C67.5603 21.9536 67.7791 22.0011 68.001 22C68.211 22.0005 68.4183 21.956 68.6104 21.8711C68.8024 21.7862 68.9752 21.6634 69.1162 21.5078C69.2572 21.3522 69.3641 21.1682 69.4297 20.9688C69.4953 20.7693 69.5182 20.5585 69.4971 20.3496C69.476 20.1407 69.4109 19.9382 69.3067 19.7559C69.2025 19.5735 69.0609 19.4153 68.8916 19.291C68.7224 19.1668 68.5294 19.0799 68.3243 19.0352C68.1191 18.9904 67.9068 18.9888 67.7012 19.0312L67.7051 19.0332Z" fill="white"/>
</g>
<path d="M94.284 14.64C93.5093 14.64 92.842 14.4953 92.282 14.206C91.722 13.9167 91.288 13.506 90.98 12.974C90.6813 12.442 90.532 11.812 90.532 11.084C90.532 10.3747 90.6767 9.754 90.966 9.222C91.2647 8.69 91.6707 8.27467 92.184 7.976C92.7067 7.668 93.2993 7.514 93.962 7.514C94.4473 7.514 94.8813 7.59333 95.264 7.752C95.656 7.91067 95.9873 8.13933 96.258 8.438C96.538 8.73667 96.748 9.10067 96.888 9.53C97.0373 9.95 97.112 10.426 97.112 10.958C97.112 11.126 97.0513 11.2567 96.93 11.35C96.818 11.434 96.6547 11.476 96.44 11.476H91.946V10.468H95.88L95.656 10.678C95.656 10.2487 95.5907 9.88933 95.46 9.6C95.3387 9.31067 95.1567 9.09133 94.914 8.942C94.6807 8.78333 94.3867 8.704 94.032 8.704C93.64 8.704 93.304 8.79733 93.024 8.984C92.7533 9.16133 92.5433 9.418 92.394 9.754C92.254 10.0807 92.184 10.4727 92.184 10.93V11.028C92.184 11.7933 92.3613 12.3673 92.716 12.75C93.08 13.1233 93.612 13.31 94.312 13.31C94.5547 13.31 94.8253 13.282 95.124 13.226C95.432 13.1607 95.7213 13.0533 95.992 12.904C96.188 12.792 96.3607 12.7453 96.51 12.764C96.6593 12.7733 96.776 12.8247 96.86 12.918C96.9533 13.0113 97.0093 13.128 97.028 13.268C97.0467 13.3987 97.0187 13.534 96.944 13.674C96.8787 13.814 96.762 13.9353 96.594 14.038C96.2673 14.2433 95.8893 14.3973 95.46 14.5C95.04 14.5933 94.648 14.64 94.284 14.64ZM99.3659 14.612C99.0859 14.612 98.8712 14.5373 98.7219 14.388C98.5726 14.2293 98.4979 14.0053 98.4979 13.716V8.424C98.4979 8.13467 98.5726 7.91533 98.7219 7.766C98.8712 7.61667 99.0812 7.542 99.3519 7.542C99.6226 7.542 99.8326 7.61667 99.9819 7.766C100.131 7.91533 100.206 8.13467 100.206 8.424V9.376L100.052 9.026C100.257 8.53133 100.575 8.158 101.004 7.906C101.443 7.64467 101.937 7.514 102.488 7.514C103.039 7.514 103.491 7.61667 103.846 7.822C104.201 8.02733 104.467 8.34 104.644 8.76C104.821 9.17067 104.91 9.69333 104.91 10.328V13.716C104.91 14.0053 104.835 14.2293 104.686 14.388C104.537 14.5373 104.322 14.612 104.042 14.612C103.762 14.612 103.543 14.5373 103.384 14.388C103.235 14.2293 103.16 14.0053 103.16 13.716V10.412C103.16 9.88 103.057 9.49267 102.852 9.25C102.656 9.00733 102.348 8.886 101.928 8.886C101.415 8.886 101.004 9.04933 100.696 9.376C100.397 9.69333 100.248 10.118 100.248 10.65V13.716C100.248 14.3133 99.9539 14.612 99.3659 14.612ZM109.823 14.64C109.217 14.64 108.708 14.5373 108.297 14.332C107.896 14.1267 107.597 13.828 107.401 13.436C107.205 13.0347 107.107 12.54 107.107 11.952V8.97H106.379C106.155 8.97 105.983 8.914 105.861 8.802C105.74 8.68067 105.679 8.51733 105.679 8.312C105.679 8.09733 105.74 7.934 105.861 7.822C105.983 7.71 106.155 7.654 106.379 7.654H107.107V6.38C107.107 6.09067 107.182 5.87133 107.331 5.722C107.49 5.57267 107.709 5.498 107.989 5.498C108.269 5.498 108.484 5.57267 108.633 5.722C108.783 5.87133 108.857 6.09067 108.857 6.38V7.654H110.341C110.565 7.654 110.738 7.71 110.859 7.822C110.981 7.934 111.041 8.09733 111.041 8.312C111.041 8.51733 110.981 8.68067 110.859 8.802C110.738 8.914 110.565 8.97 110.341 8.97H108.857V11.854C108.857 12.302 108.955 12.638 109.151 12.862C109.347 13.086 109.665 13.198 110.103 13.198C110.262 13.198 110.402 13.184 110.523 13.156C110.645 13.128 110.752 13.1093 110.845 13.1C110.957 13.0907 111.051 13.128 111.125 13.212C111.2 13.2867 111.237 13.4453 111.237 13.688C111.237 13.8747 111.205 14.0427 111.139 14.192C111.083 14.332 110.976 14.43 110.817 14.486C110.696 14.5233 110.537 14.556 110.341 14.584C110.145 14.6213 109.973 14.64 109.823 14.64ZM112.956 14.612C112.667 14.612 112.443 14.5373 112.284 14.388C112.135 14.2293 112.06 14.0053 112.06 13.716V8.424C112.06 8.13467 112.135 7.91533 112.284 7.766C112.434 7.61667 112.644 7.542 112.914 7.542C113.185 7.542 113.395 7.61667 113.544 7.766C113.694 7.91533 113.768 8.13467 113.768 8.424V9.306H113.628C113.759 8.746 114.016 8.32133 114.398 8.032C114.781 7.74267 115.29 7.57 115.924 7.514C116.12 7.49533 116.274 7.54667 116.386 7.668C116.508 7.78 116.578 7.95733 116.596 8.2C116.615 8.43333 116.559 8.62467 116.428 8.774C116.307 8.914 116.12 8.998 115.868 9.026L115.56 9.054C114.991 9.11 114.562 9.28733 114.272 9.586C113.983 9.87533 113.838 10.286 113.838 10.818V13.716C113.838 14.0053 113.764 14.2293 113.614 14.388C113.465 14.5373 113.246 14.612 112.956 14.612ZM120.807 14.64C120.033 14.64 119.365 14.4953 118.805 14.206C118.245 13.9167 117.811 13.506 117.503 12.974C117.205 12.442 117.055 11.812 117.055 11.084C117.055 10.3747 117.2 9.754 117.489 9.222C117.788 8.69 118.194 8.27467 118.707 7.976C119.23 7.668 119.823 7.514 120.485 7.514C120.971 7.514 121.405 7.59333 121.787 7.752C122.179 7.91067 122.511 8.13933 122.781 8.438C123.061 8.73667 123.271 9.10067 123.411 9.53C123.561 9.95 123.635 10.426 123.635 10.958C123.635 11.126 123.575 11.2567 123.453 11.35C123.341 11.434 123.178 11.476 122.963 11.476H118.469V10.468H122.403L122.179 10.678C122.179 10.2487 122.114 9.88933 121.983 9.6C121.862 9.31067 121.68 9.09133 121.437 8.942C121.204 8.78333 120.91 8.704 120.555 8.704C120.163 8.704 119.827 8.79733 119.547 8.984C119.277 9.16133 119.067 9.418 118.917 9.754C118.777 10.0807 118.707 10.4727 118.707 10.93V11.028C118.707 11.7933 118.885 12.3673 119.239 12.75C119.603 13.1233 120.135 13.31 120.835 13.31C121.078 13.31 121.349 13.282 121.647 13.226C121.955 13.1607 122.245 13.0533 122.515 12.904C122.711 12.792 122.884 12.7453 123.033 12.764C123.183 12.7733 123.299 12.8247 123.383 12.918C123.477 13.0113 123.533 13.128 123.551 13.268C123.57 13.3987 123.542 13.534 123.467 13.674C123.402 13.814 123.285 13.9353 123.117 14.038C122.791 14.2433 122.413 14.3973 121.983 14.5C121.563 14.5933 121.171 14.64 120.807 14.64ZM128.213 17.16C127.709 17.16 127.219 17.1133 126.743 17.02C126.277 16.9267 125.852 16.782 125.469 16.586C125.292 16.4927 125.171 16.3807 125.105 16.25C125.049 16.1193 125.031 15.984 125.049 15.844C125.077 15.7133 125.133 15.5967 125.217 15.494C125.311 15.3913 125.423 15.3213 125.553 15.284C125.684 15.2467 125.819 15.2653 125.959 15.34C126.37 15.5453 126.757 15.676 127.121 15.732C127.495 15.7973 127.812 15.83 128.073 15.83C128.699 15.83 129.165 15.676 129.473 15.368C129.791 15.0693 129.949 14.6213 129.949 14.024V12.764H130.075C129.935 13.24 129.641 13.6227 129.193 13.912C128.755 14.192 128.255 14.332 127.695 14.332C127.079 14.332 126.543 14.192 126.085 13.912C125.628 13.6227 125.273 13.2213 125.021 12.708C124.769 12.1947 124.643 11.5973 124.643 10.916C124.643 10.4027 124.713 9.94067 124.853 9.53C125.003 9.11 125.208 8.75067 125.469 8.452C125.74 8.15333 126.062 7.92467 126.435 7.766C126.818 7.598 127.238 7.514 127.695 7.514C128.274 7.514 128.778 7.65867 129.207 7.948C129.646 8.228 129.931 8.60133 130.061 9.068L129.921 9.418V8.424C129.921 8.13467 129.996 7.91533 130.145 7.766C130.304 7.61667 130.519 7.542 130.789 7.542C131.069 7.542 131.284 7.61667 131.433 7.766C131.583 7.91533 131.657 8.13467 131.657 8.424V13.814C131.657 14.9247 131.363 15.76 130.775 16.32C130.187 16.88 129.333 17.16 128.213 17.16ZM128.171 13.002C128.535 13.002 128.848 12.918 129.109 12.75C129.371 12.582 129.571 12.344 129.711 12.036C129.861 11.7187 129.935 11.3453 129.935 10.916C129.935 10.272 129.777 9.768 129.459 9.404C129.142 9.03067 128.713 8.844 128.171 8.844C127.807 8.844 127.495 8.928 127.233 9.096C126.972 9.264 126.767 9.502 126.617 9.81C126.477 10.118 126.407 10.4867 126.407 10.916C126.407 11.56 126.566 12.0687 126.883 12.442C127.201 12.8153 127.63 13.002 128.171 13.002ZM135.725 14.64C135.23 14.64 134.787 14.5467 134.395 14.36C134.012 14.164 133.709 13.9027 133.485 13.576C133.27 13.2493 133.163 12.8807 133.163 12.47C133.163 11.966 133.293 11.5693 133.555 11.28C133.816 10.9813 134.241 10.7667 134.829 10.636C135.417 10.5053 136.205 10.44 137.195 10.44H137.895V11.448H137.209C136.63 11.448 136.168 11.476 135.823 11.532C135.477 11.588 135.23 11.686 135.081 11.826C134.941 11.9567 134.871 12.1433 134.871 12.386C134.871 12.694 134.978 12.946 135.193 13.142C135.407 13.338 135.706 13.436 136.089 13.436C136.397 13.436 136.667 13.366 136.901 13.226C137.143 13.0767 137.335 12.876 137.475 12.624C137.615 12.372 137.685 12.0827 137.685 11.756V10.146C137.685 9.67933 137.582 9.34333 137.377 9.138C137.171 8.93267 136.826 8.83 136.341 8.83C136.07 8.83 135.776 8.86267 135.459 8.928C135.151 8.99333 134.824 9.10533 134.479 9.264C134.301 9.348 134.143 9.37133 134.003 9.334C133.872 9.29667 133.769 9.222 133.695 9.11C133.62 8.98867 133.583 8.858 133.583 8.718C133.583 8.578 133.62 8.44267 133.695 8.312C133.769 8.172 133.895 8.06933 134.073 8.004C134.502 7.82667 134.913 7.70067 135.305 7.626C135.706 7.55133 136.07 7.514 136.397 7.514C137.069 7.514 137.619 7.61667 138.049 7.822C138.487 8.02733 138.814 8.34 139.029 8.76C139.243 9.17067 139.351 9.70267 139.351 10.356V13.716C139.351 14.0053 139.281 14.2293 139.141 14.388C139.001 14.5373 138.8 14.612 138.539 14.612C138.277 14.612 138.072 14.5373 137.923 14.388C137.783 14.2293 137.713 14.0053 137.713 13.716V13.044H137.825C137.759 13.3707 137.629 13.6553 137.433 13.898C137.246 14.1313 137.008 14.3133 136.719 14.444C136.429 14.5747 136.098 14.64 135.725 14.64ZM141.995 14.612C141.715 14.612 141.5 14.5373 141.351 14.388C141.201 14.2293 141.127 14.0053 141.127 13.716V8.424C141.127 8.13467 141.201 7.91533 141.351 7.766C141.5 7.61667 141.71 7.542 141.981 7.542C142.251 7.542 142.461 7.61667 142.611 7.766C142.76 7.91533 142.835 8.13467 142.835 8.424V9.376L142.681 9.026C142.886 8.53133 143.203 8.158 143.633 7.906C144.071 7.64467 144.566 7.514 145.117 7.514C145.667 7.514 146.12 7.61667 146.475 7.822C146.829 8.02733 147.095 8.34 147.273 8.76C147.45 9.17067 147.539 9.69333 147.539 10.328V13.716C147.539 14.0053 147.464 14.2293 147.315 14.388C147.165 14.5373 146.951 14.612 146.671 14.612C146.391 14.612 146.171 14.5373 146.013 14.388C145.863 14.2293 145.789 14.0053 145.789 13.716V10.412C145.789 9.88 145.686 9.49267 145.481 9.25C145.285 9.00733 144.977 8.886 144.557 8.886C144.043 8.886 143.633 9.04933 143.325 9.376C143.026 9.69333 142.877 10.118 142.877 10.65V13.716C142.877 14.3133 142.583 14.612 141.995 14.612ZM151.948 14.64C151.351 14.64 150.824 14.4953 150.366 14.206C149.918 13.9167 149.568 13.506 149.316 12.974C149.064 12.4327 148.938 11.798 148.938 11.07C148.938 10.3327 149.064 9.70267 149.316 9.18C149.568 8.648 149.918 8.23733 150.366 7.948C150.824 7.65867 151.351 7.514 151.948 7.514C152.518 7.514 153.012 7.654 153.432 7.934C153.862 8.214 154.151 8.58267 154.3 9.04H154.146V5.4C154.146 5.11067 154.221 4.89133 154.37 4.742C154.52 4.59267 154.734 4.518 155.014 4.518C155.294 4.518 155.509 4.59267 155.658 4.742C155.817 4.89133 155.896 5.11067 155.896 5.4V13.716C155.896 14.0053 155.822 14.2293 155.672 14.388C155.523 14.5373 155.308 14.612 155.028 14.612C154.748 14.612 154.534 14.5373 154.384 14.388C154.235 14.2293 154.16 14.0053 154.16 13.716V12.624L154.314 13.044C154.174 13.5293 153.89 13.9167 153.46 14.206C153.031 14.4953 152.527 14.64 151.948 14.64ZM152.438 13.31C152.784 13.31 153.087 13.226 153.348 13.058C153.61 12.89 153.81 12.6427 153.95 12.316C154.1 11.98 154.174 11.5647 154.174 11.07C154.174 10.3233 154.016 9.768 153.698 9.404C153.381 9.03067 152.961 8.844 152.438 8.844C152.093 8.844 151.79 8.928 151.528 9.096C151.267 9.25467 151.062 9.502 150.912 9.838C150.772 10.1647 150.702 10.5753 150.702 11.07C150.702 11.8073 150.861 12.3673 151.178 12.75C151.496 13.1233 151.916 13.31 152.438 13.31ZM160.833 14.64C160.123 14.64 159.507 14.4953 158.985 14.206C158.462 13.9167 158.056 13.506 157.767 12.974C157.477 12.4327 157.333 11.798 157.333 11.07C157.333 10.5193 157.412 10.0293 157.571 9.6C157.739 9.16133 157.977 8.788 158.285 8.48C158.593 8.16267 158.961 7.92467 159.391 7.766C159.82 7.598 160.301 7.514 160.833 7.514C161.542 7.514 162.158 7.65867 162.681 7.948C163.203 8.23733 163.609 8.648 163.899 9.18C164.188 9.712 164.333 10.342 164.333 11.07C164.333 11.6207 164.249 12.1153 164.081 12.554C163.922 12.9927 163.689 13.3707 163.381 13.688C163.073 13.996 162.704 14.234 162.275 14.402C161.845 14.5607 161.365 14.64 160.833 14.64ZM160.833 13.31C161.178 13.31 161.481 13.226 161.743 13.058C162.004 12.89 162.205 12.6427 162.345 12.316C162.494 11.98 162.569 11.5647 162.569 11.07C162.569 10.3233 162.41 9.768 162.093 9.404C161.775 9.03067 161.355 8.844 160.833 8.844C160.487 8.844 160.184 8.928 159.923 9.096C159.661 9.25467 159.456 9.502 159.307 9.838C159.167 10.1647 159.097 10.5753 159.097 11.07C159.097 11.8073 159.255 12.3673 159.573 12.75C159.89 13.1233 160.31 13.31 160.833 13.31ZM172.952 14.64C172.177 14.64 171.51 14.4953 170.95 14.206C170.39 13.9167 169.956 13.506 169.648 12.974C169.349 12.442 169.2 11.812 169.2 11.084C169.2 10.3747 169.345 9.754 169.634 9.222C169.933 8.69 170.339 8.27467 170.852 7.976C171.375 7.668 171.967 7.514 172.63 7.514C173.115 7.514 173.549 7.59333 173.932 7.752C174.324 7.91067 174.655 8.13933 174.926 8.438C175.206 8.73667 175.416 9.10067 175.556 9.53C175.705 9.95 175.78 10.426 175.78 10.958C175.78 11.126 175.719 11.2567 175.598 11.35C175.486 11.434 175.323 11.476 175.108 11.476H170.614V10.468H174.548L174.324 10.678C174.324 10.2487 174.259 9.88933 174.128 9.6C174.007 9.31067 173.825 9.09133 173.582 8.942C173.349 8.78333 173.055 8.704 172.7 8.704C172.308 8.704 171.972 8.79733 171.692 8.984C171.421 9.16133 171.211 9.418 171.062 9.754C170.922 10.0807 170.852 10.4727 170.852 10.93V11.028C170.852 11.7933 171.029 12.3673 171.384 12.75C171.748 13.1233 172.28 13.31 172.98 13.31C173.223 13.31 173.493 13.282 173.792 13.226C174.1 13.1607 174.389 13.0533 174.66 12.904C174.856 12.792 175.029 12.7453 175.178 12.764C175.327 12.7733 175.444 12.8247 175.528 12.918C175.621 13.0113 175.677 13.128 175.696 13.268C175.715 13.3987 175.687 13.534 175.612 13.674C175.547 13.814 175.43 13.9353 175.262 14.038C174.935 14.2433 174.557 14.3973 174.128 14.5C173.708 14.5933 173.316 14.64 172.952 14.64ZM178.062 14.612C177.782 14.612 177.567 14.5373 177.418 14.388C177.269 14.2293 177.194 14.0053 177.194 13.716V8.424C177.194 8.13467 177.269 7.91533 177.418 7.766C177.567 7.61667 177.777 7.542 178.048 7.542C178.319 7.542 178.529 7.61667 178.678 7.766C178.827 7.91533 178.902 8.13467 178.902 8.424V9.446L178.748 9.026C178.935 8.55933 179.224 8.19067 179.616 7.92C180.008 7.64933 180.475 7.514 181.016 7.514C181.567 7.514 182.019 7.64467 182.374 7.906C182.729 8.16733 182.976 8.56867 183.116 9.11H182.92C183.107 8.61533 183.415 8.228 183.844 7.948C184.273 7.65867 184.768 7.514 185.328 7.514C185.851 7.514 186.28 7.61667 186.616 7.822C186.961 8.02733 187.218 8.34 187.386 8.76C187.554 9.17067 187.638 9.69333 187.638 10.328V13.716C187.638 14.0053 187.559 14.2293 187.4 14.388C187.251 14.5373 187.036 14.612 186.756 14.612C186.476 14.612 186.261 14.5373 186.112 14.388C185.963 14.2293 185.888 14.0053 185.888 13.716V10.398C185.888 9.87533 185.799 9.49267 185.622 9.25C185.454 9.00733 185.165 8.886 184.754 8.886C184.297 8.886 183.937 9.04933 183.676 9.376C183.415 9.69333 183.284 10.1367 183.284 10.706V13.716C183.284 14.0053 183.209 14.2293 183.06 14.388C182.911 14.5373 182.696 14.612 182.416 14.612C182.136 14.612 181.917 14.5373 181.758 14.388C181.609 14.2293 181.534 14.0053 181.534 13.716V10.398C181.534 9.87533 181.445 9.49267 181.268 9.25C181.1 9.00733 180.815 8.886 180.414 8.886C179.957 8.886 179.597 9.04933 179.336 9.376C179.075 9.69333 178.944 10.1367 178.944 10.706V13.716C178.944 14.3133 178.65 14.612 178.062 14.612Z" fill="#EECFFC"/>
<path d="M92.256 37.628C91.9253 37.628 91.6693 37.5373 91.488 37.356C91.3173 37.164 91.232 36.9027 91.232 36.572V27.26C91.232 26.9187 91.3227 26.6627 91.504 26.492C91.6853 26.3107 91.9413 26.22 92.272 26.22H96.128C97.3653 26.22 98.32 26.5187 98.992 27.116C99.664 27.7027 100 28.5293 100 29.596C100 30.2893 99.8453 30.8867 99.536 31.388C99.2373 31.8893 98.8 32.2733 98.224 32.54C97.648 32.8067 96.9493 32.94 96.128 32.94L96.272 32.7H96.8C97.2373 32.7 97.616 32.8067 97.936 33.02C98.2667 33.2333 98.5547 33.5693 98.8 34.028L100 36.252C100.128 36.476 100.187 36.6947 100.176 36.908C100.165 37.1213 100.085 37.2973 99.936 37.436C99.7867 37.564 99.568 37.628 99.28 37.628C98.992 37.628 98.7573 37.5693 98.576 37.452C98.3947 37.324 98.2347 37.132 98.096 36.876L96.48 33.9C96.288 33.5373 96.0587 33.2973 95.792 33.18C95.536 33.052 95.2053 32.988 94.8 32.988H93.28V36.572C93.28 36.9027 93.1947 37.164 93.024 37.356C92.8533 37.5373 92.5973 37.628 92.256 37.628ZM93.28 31.468H95.776C96.512 31.468 97.0667 31.3187 97.44 31.02C97.824 30.7107 98.016 30.252 98.016 29.644C98.016 29.0467 97.824 28.5987 97.44 28.3C97.0667 27.9907 96.512 27.836 95.776 27.836H93.28V31.468ZM104.841 37.66C104.19 37.66 103.651 37.5427 103.225 37.308C102.798 37.0627 102.478 36.7 102.265 36.22C102.062 35.74 101.961 35.1427 101.961 34.428V30.556C101.961 30.2147 102.046 29.964 102.217 29.804C102.387 29.6333 102.633 29.548 102.953 29.548C103.273 29.548 103.518 29.6333 103.689 29.804C103.87 29.964 103.961 30.2147 103.961 30.556V34.46C103.961 35.0147 104.073 35.4253 104.297 35.692C104.521 35.9587 104.878 36.092 105.369 36.092C105.902 36.092 106.339 35.9107 106.681 35.548C107.022 35.1747 107.193 34.684 107.193 34.076V30.556C107.193 30.2147 107.278 29.964 107.449 29.804C107.619 29.6333 107.865 29.548 108.185 29.548C108.505 29.548 108.75 29.6333 108.921 29.804C109.102 29.964 109.193 30.2147 109.193 30.556V36.604C109.193 37.2867 108.867 37.628 108.217 37.628C107.907 37.628 107.667 37.5427 107.497 37.372C107.326 37.1907 107.241 36.9347 107.241 36.604V35.388L107.465 35.868C107.241 36.444 106.899 36.8867 106.441 37.196C105.993 37.5053 105.459 37.66 104.841 37.66ZM113.85 37.66C113.285 37.66 112.778 37.5533 112.33 37.34C111.893 37.116 111.546 36.8173 111.29 36.444C111.045 36.0707 110.922 35.6493 110.922 35.18C110.922 34.604 111.072 34.1507 111.37 33.82C111.669 33.4787 112.154 33.2333 112.826 33.084C113.498 32.9347 114.4 32.86 115.53 32.86H116.33V34.012H115.546C114.885 34.012 114.357 34.044 113.962 34.108C113.568 34.172 113.285 34.284 113.114 34.444C112.954 34.5933 112.874 34.8067 112.874 35.084C112.874 35.436 112.997 35.724 113.242 35.948C113.488 36.172 113.829 36.284 114.266 36.284C114.618 36.284 114.928 36.204 115.194 36.044C115.472 35.8733 115.69 35.644 115.85 35.356C116.01 35.068 116.09 34.7373 116.09 34.364V32.524C116.09 31.9907 115.973 31.6067 115.738 31.372C115.504 31.1373 115.109 31.02 114.554 31.02C114.245 31.02 113.909 31.0573 113.546 31.132C113.194 31.2067 112.821 31.3347 112.426 31.516C112.224 31.612 112.042 31.6387 111.882 31.596C111.733 31.5533 111.616 31.468 111.53 31.34C111.445 31.2013 111.402 31.052 111.402 30.892C111.402 30.732 111.445 30.5773 111.53 30.428C111.616 30.268 111.76 30.1507 111.962 30.076C112.453 29.8733 112.922 29.7293 113.37 29.644C113.829 29.5587 114.245 29.516 114.618 29.516C115.386 29.516 116.016 29.6333 116.506 29.868C117.008 30.1027 117.381 30.46 117.626 30.94C117.872 31.4093 117.994 32.0173 117.994 32.764V36.604C117.994 36.9347 117.914 37.1907 117.754 37.372C117.594 37.5427 117.365 37.628 117.066 37.628C116.768 37.628 116.533 37.5427 116.362 37.372C116.202 37.1907 116.122 36.9347 116.122 36.604V35.836H116.25C116.176 36.2093 116.026 36.5347 115.802 36.812C115.589 37.0787 115.317 37.2867 114.986 37.436C114.656 37.5853 114.277 37.66 113.85 37.66ZM125.52 37.628C125.221 37.628 124.992 37.5427 124.832 37.372C124.672 37.2013 124.592 36.9667 124.592 36.668V27.052C124.592 26.7427 124.677 26.508 124.848 26.348C125.019 26.1773 125.253 26.092 125.552 26.092C125.819 26.092 126.027 26.1453 126.176 26.252C126.336 26.348 126.48 26.5187 126.608 26.764L130.56 34.076H130.048L134 26.764C134.128 26.5187 134.267 26.348 134.416 26.252C134.565 26.1453 134.773 26.092 135.04 26.092C135.339 26.092 135.568 26.1773 135.728 26.348C135.888 26.508 135.968 26.7427 135.968 27.052V36.668C135.968 36.9667 135.888 37.2013 135.728 37.372C135.579 37.5427 135.349 37.628 135.04 37.628C134.741 37.628 134.512 37.5427 134.352 37.372C134.192 37.2013 134.112 36.9667 134.112 36.668V29.26H134.464L131.104 35.388C130.997 35.5693 130.885 35.7027 130.768 35.788C130.651 35.8733 130.491 35.916 130.288 35.916C130.085 35.916 129.92 35.8733 129.792 35.788C129.664 35.692 129.552 35.5587 129.456 35.388L126.064 29.244H126.448V36.668C126.448 36.9667 126.368 37.2013 126.208 37.372C126.059 37.5427 125.829 37.628 125.52 37.628ZM140.835 37.66C140.269 37.66 139.763 37.5533 139.315 37.34C138.877 37.116 138.531 36.8173 138.275 36.444C138.029 36.0707 137.907 35.6493 137.907 35.18C137.907 34.604 138.056 34.1507 138.355 33.82C138.653 33.4787 139.139 33.2333 139.811 33.084C140.483 32.9347 141.384 32.86 142.515 32.86H143.315V34.012H142.531C141.869 34.012 141.341 34.044 140.947 34.108C140.552 34.172 140.269 34.284 140.099 34.444C139.939 34.5933 139.859 34.8067 139.859 35.084C139.859 35.436 139.981 35.724 140.227 35.948C140.472 36.172 140.813 36.284 141.251 36.284C141.603 36.284 141.912 36.204 142.179 36.044C142.456 35.8733 142.675 35.644 142.835 35.356C142.995 35.068 143.075 34.7373 143.075 34.364V32.524C143.075 31.9907 142.957 31.6067 142.723 31.372C142.488 31.1373 142.093 31.02 141.539 31.02C141.229 31.02 140.893 31.0573 140.531 31.132C140.179 31.2067 139.805 31.3347 139.411 31.516C139.208 31.612 139.027 31.6387 138.867 31.596C138.717 31.5533 138.6 31.468 138.515 31.34C138.429 31.2013 138.387 31.052 138.387 30.892C138.387 30.732 138.429 30.5773 138.515 30.428C138.6 30.268 138.744 30.1507 138.947 30.076C139.437 29.8733 139.907 29.7293 140.355 29.644C140.813 29.5587 141.229 29.516 141.603 29.516C142.371 29.516 143 29.6333 143.491 29.868C143.992 30.1027 144.365 30.46 144.611 30.94C144.856 31.4093 144.979 32.0173 144.979 32.764V36.604C144.979 36.9347 144.899 37.1907 144.739 37.372C144.579 37.5427 144.349 37.628 144.051 37.628C143.752 37.628 143.517 37.5427 143.347 37.372C143.187 37.1907 143.107 36.9347 143.107 36.604V35.836H143.235C143.16 36.2093 143.011 36.5347 142.787 36.812C142.573 37.0787 142.301 37.2867 141.971 37.436C141.64 37.5853 141.261 37.66 140.835 37.66ZM148.001 37.628C147.681 37.628 147.435 37.5427 147.265 37.372C147.094 37.1907 147.009 36.9347 147.009 36.604V30.556C147.009 30.2253 147.094 29.9747 147.265 29.804C147.435 29.6333 147.675 29.548 147.985 29.548C148.294 29.548 148.534 29.6333 148.705 29.804C148.875 29.9747 148.961 30.2253 148.961 30.556V31.644L148.785 31.244C149.019 30.6787 149.382 30.252 149.873 29.964C150.374 29.6653 150.939 29.516 151.569 29.516C152.198 29.516 152.715 29.6333 153.121 29.868C153.526 30.1027 153.83 30.46 154.033 30.94C154.235 31.4093 154.337 32.0067 154.337 32.732V36.604C154.337 36.9347 154.251 37.1907 154.081 37.372C153.91 37.5427 153.665 37.628 153.345 37.628C153.025 37.628 152.774 37.5427 152.593 37.372C152.422 37.1907 152.337 36.9347 152.337 36.604V32.828C152.337 32.22 152.219 31.7773 151.985 31.5C151.761 31.2227 151.409 31.084 150.929 31.084C150.342 31.084 149.873 31.2707 149.521 31.644C149.179 32.0067 149.009 32.492 149.009 33.1V36.604C149.009 37.2867 148.673 37.628 148.001 37.628ZM159.376 37.66C158.693 37.66 158.091 37.4947 157.568 37.164C157.056 36.8333 156.656 36.364 156.368 35.756C156.08 35.1373 155.936 34.412 155.936 33.58C155.936 32.7373 156.08 32.0173 156.368 31.42C156.656 30.812 157.056 30.3427 157.568 30.012C158.091 29.6813 158.693 29.516 159.376 29.516C160.027 29.516 160.592 29.676 161.072 29.996C161.563 30.316 161.893 30.7373 162.064 31.26H161.888V27.1C161.888 26.7693 161.973 26.5187 162.144 26.348C162.315 26.1773 162.56 26.092 162.88 26.092C163.2 26.092 163.445 26.1773 163.616 26.348C163.797 26.5187 163.888 26.7693 163.888 27.1V36.604C163.888 36.9347 163.803 37.1907 163.632 37.372C163.461 37.5427 163.216 37.628 162.896 37.628C162.576 37.628 162.331 37.5427 162.16 37.372C161.989 37.1907 161.904 36.9347 161.904 36.604V35.356L162.08 35.836C161.92 36.3907 161.595 36.8333 161.104 37.164C160.613 37.4947 160.037 37.66 159.376 37.66ZM159.936 36.14C160.331 36.14 160.677 36.044 160.976 35.852C161.275 35.66 161.504 35.3773 161.664 35.004C161.835 34.62 161.92 34.1453 161.92 33.58C161.92 32.7267 161.739 32.092 161.376 31.676C161.013 31.2493 160.533 31.036 159.936 31.036C159.541 31.036 159.195 31.132 158.896 31.324C158.597 31.5053 158.363 31.788 158.192 32.172C158.032 32.5453 157.952 33.0147 157.952 33.58C157.952 34.4227 158.133 35.0627 158.496 35.5C158.859 35.9267 159.339 36.14 159.936 36.14ZM168.538 37.66C167.973 37.66 167.466 37.5533 167.018 37.34C166.581 37.116 166.234 36.8173 165.978 36.444C165.733 36.0707 165.61 35.6493 165.61 35.18C165.61 34.604 165.759 34.1507 166.058 33.82C166.357 33.4787 166.842 33.2333 167.514 33.084C168.186 32.9347 169.087 32.86 170.218 32.86H171.018V34.012H170.234C169.573 34.012 169.045 34.044 168.65 34.108C168.255 34.172 167.973 34.284 167.802 34.444C167.642 34.5933 167.562 34.8067 167.562 35.084C167.562 35.436 167.685 35.724 167.93 35.948C168.175 36.172 168.517 36.284 168.954 36.284C169.306 36.284 169.615 36.204 169.882 36.044C170.159 35.8733 170.378 35.644 170.538 35.356C170.698 35.068 170.778 34.7373 170.778 34.364V32.524C170.778 31.9907 170.661 31.6067 170.426 31.372C170.191 31.1373 169.797 31.02 169.242 31.02C168.933 31.02 168.597 31.0573 168.234 31.132C167.882 31.2067 167.509 31.3347 167.114 31.516C166.911 31.612 166.73 31.6387 166.57 31.596C166.421 31.5533 166.303 31.468 166.218 31.34C166.133 31.2013 166.09 31.052 166.09 30.892C166.09 30.732 166.133 30.5773 166.218 30.428C166.303 30.268 166.447 30.1507 166.65 30.076C167.141 29.8733 167.61 29.7293 168.058 29.644C168.517 29.5587 168.933 29.516 169.306 29.516C170.074 29.516 170.703 29.6333 171.194 29.868C171.695 30.1027 172.069 30.46 172.314 30.94C172.559 31.4093 172.682 32.0173 172.682 32.764V36.604C172.682 36.9347 172.602 37.1907 172.442 37.372C172.282 37.5427 172.053 37.628 171.754 37.628C171.455 37.628 171.221 37.5427 171.05 37.372C170.89 37.1907 170.81 36.9347 170.81 36.604V35.836H170.938C170.863 36.2093 170.714 36.5347 170.49 36.812C170.277 37.0787 170.005 37.2867 169.674 37.436C169.343 37.5853 168.965 37.66 168.538 37.66ZM178.36 40.54C177.784 40.54 177.224 40.4867 176.68 40.38C176.147 40.2733 175.661 40.108 175.224 39.884C175.021 39.7773 174.883 39.6493 174.808 39.5C174.744 39.3507 174.723 39.196 174.744 39.036C174.776 38.8867 174.84 38.7533 174.936 38.636C175.043 38.5187 175.171 38.4387 175.32 38.396C175.469 38.3533 175.624 38.3747 175.784 38.46C176.253 38.6947 176.696 38.844 177.112 38.908C177.539 38.9827 177.901 39.02 178.2 39.02C178.915 39.02 179.448 38.844 179.8 38.492C180.163 38.1507 180.344 37.6387 180.344 36.956V35.516H180.488C180.328 36.06 179.992 36.4973 179.48 36.828C178.979 37.148 178.408 37.308 177.768 37.308C177.064 37.308 176.451 37.148 175.928 36.828C175.405 36.4973 175 36.0387 174.712 35.452C174.424 34.8653 174.28 34.1827 174.28 33.404C174.28 32.8173 174.36 32.2893 174.52 31.82C174.691 31.34 174.925 30.9293 175.224 30.588C175.533 30.2467 175.901 29.9853 176.328 29.804C176.765 29.612 177.245 29.516 177.768 29.516C178.429 29.516 179.005 29.6813 179.496 30.012C179.997 30.332 180.323 30.7587 180.472 31.292L180.312 31.692V30.556C180.312 30.2253 180.397 29.9747 180.568 29.804C180.749 29.6333 180.995 29.548 181.304 29.548C181.624 29.548 181.869 29.6333 182.04 29.804C182.211 29.9747 182.296 30.2253 182.296 30.556V36.716C182.296 37.9853 181.96 38.94 181.288 39.58C180.616 40.22 179.64 40.54 178.36 40.54ZM178.312 35.788C178.728 35.788 179.085 35.692 179.384 35.5C179.683 35.308 179.912 35.036 180.072 34.684C180.243 34.3213 180.328 33.8947 180.328 33.404C180.328 32.668 180.147 32.092 179.784 31.676C179.421 31.2493 178.931 31.036 178.312 31.036C177.896 31.036 177.539 31.132 177.24 31.324C176.941 31.516 176.707 31.788 176.536 32.14C176.376 32.492 176.296 32.9133 176.296 33.404C176.296 34.14 176.477 34.7213 176.84 35.148C177.203 35.5747 177.693 35.788 178.312 35.788ZM187.2 37.66C186.549 37.66 186.011 37.5427 185.584 37.308C185.157 37.0627 184.837 36.7 184.624 36.22C184.421 35.74 184.32 35.1427 184.32 34.428V30.556C184.32 30.2147 184.405 29.964 184.576 29.804C184.747 29.6333 184.992 29.548 185.312 29.548C185.632 29.548 185.877 29.6333 186.048 29.804C186.229 29.964 186.32 30.2147 186.32 30.556V34.46C186.32 35.0147 186.432 35.4253 186.656 35.692C186.88 35.9587 187.237 36.092 187.728 36.092C188.261 36.092 188.699 35.9107 189.04 35.548C189.381 35.1747 189.552 34.684 189.552 34.076V30.556C189.552 30.2147 189.637 29.964 189.808 29.804C189.979 29.6333 190.224 29.548 190.544 29.548C190.864 29.548 191.109 29.6333 191.28 29.804C191.461 29.964 191.552 30.2147 191.552 30.556V36.604C191.552 37.2867 191.227 37.628 190.576 37.628C190.267 37.628 190.027 37.5427 189.856 37.372C189.685 37.1907 189.6 36.9347 189.6 36.604V35.388L189.824 35.868C189.6 36.444 189.259 36.8867 188.8 37.196C188.352 37.5053 187.819 37.66 187.2 37.66ZM196.21 37.66C195.644 37.66 195.138 37.5533 194.69 37.34C194.252 37.116 193.906 36.8173 193.65 36.444C193.404 36.0707 193.282 35.6493 193.282 35.18C193.282 34.604 193.431 34.1507 193.73 33.82C194.028 33.4787 194.514 33.2333 195.186 33.084C195.858 32.9347 196.759 32.86 197.89 32.86H198.69V34.012H197.906C197.244 34.012 196.716 34.044 196.322 34.108C195.927 34.172 195.644 34.284 195.474 34.444C195.314 34.5933 195.234 34.8067 195.234 35.084C195.234 35.436 195.356 35.724 195.602 35.948C195.847 36.172 196.188 36.284 196.626 36.284C196.978 36.284 197.287 36.204 197.554 36.044C197.831 35.8733 198.05 35.644 198.21 35.356C198.37 35.068 198.45 34.7373 198.45 34.364V32.524C198.45 31.9907 198.332 31.6067 198.098 31.372C197.863 31.1373 197.468 31.02 196.914 31.02C196.604 31.02 196.268 31.0573 195.906 31.132C195.554 31.2067 195.18 31.3347 194.786 31.516C194.583 31.612 194.402 31.6387 194.242 31.596C194.092 31.5533 193.975 31.468 193.89 31.34C193.804 31.2013 193.762 31.052 193.762 30.892C193.762 30.732 193.804 30.5773 193.89 30.428C193.975 30.268 194.119 30.1507 194.322 30.076C194.812 29.8733 195.282 29.7293 195.73 29.644C196.188 29.5587 196.604 29.516 196.978 29.516C197.746 29.516 198.375 29.6333 198.866 29.868C199.367 30.1027 199.74 30.46 199.986 30.94C200.231 31.4093 200.354 32.0173 200.354 32.764V36.604C200.354 36.9347 200.274 37.1907 200.114 37.372C199.954 37.5427 199.724 37.628 199.426 37.628C199.127 37.628 198.892 37.5427 198.722 37.372C198.562 37.1907 198.482 36.9347 198.482 36.604V35.836H198.61C198.535 36.2093 198.386 36.5347 198.162 36.812C197.948 37.0787 197.676 37.2867 197.346 37.436C197.015 37.5853 196.636 37.66 196.21 37.66ZM203.408 37.628C203.077 37.628 202.821 37.5427 202.64 37.372C202.469 37.1907 202.384 36.9347 202.384 36.604V30.556C202.384 30.2253 202.469 29.9747 202.64 29.804C202.81 29.6333 203.05 29.548 203.36 29.548C203.669 29.548 203.909 29.6333 204.08 29.804C204.25 29.9747 204.336 30.2253 204.336 30.556V31.564H204.176C204.325 30.924 204.618 30.4387 205.056 30.108C205.493 29.7773 206.074 29.58 206.8 29.516C207.024 29.4947 207.2 29.5533 207.328 29.692C207.466 29.82 207.546 30.0227 207.568 30.3C207.589 30.5667 207.525 30.7853 207.376 30.956C207.237 31.116 207.024 31.212 206.736 31.244L206.384 31.276C205.733 31.34 205.242 31.5427 204.912 31.884C204.581 32.2147 204.416 32.684 204.416 33.292V36.604C204.416 36.9347 204.33 37.1907 204.16 37.372C203.989 37.5427 203.738 37.628 203.408 37.628ZM209.641 37.612C209.321 37.612 209.076 37.516 208.905 37.324C208.735 37.132 208.649 36.8653 208.649 36.524V30.652C208.649 30.3 208.735 30.0333 208.905 29.852C209.076 29.66 209.321 29.564 209.641 29.564C209.961 29.564 210.207 29.66 210.377 29.852C210.559 30.0333 210.649 30.3 210.649 30.652V36.524C210.649 36.8653 210.564 37.132 210.393 37.324C210.223 37.516 209.972 37.612 209.641 37.612ZM209.641 28.076C209.268 28.076 208.975 27.9853 208.761 27.804C208.559 27.612 208.457 27.3507 208.457 27.02C208.457 26.6787 208.559 26.4173 208.761 26.236C208.975 26.0547 209.268 25.964 209.641 25.964C210.025 25.964 210.319 26.0547 210.521 26.236C210.724 26.4173 210.825 26.6787 210.825 27.02C210.825 27.3507 210.724 27.612 210.521 27.804C210.319 27.9853 210.025 28.076 209.641 28.076ZM213.944 39.212C213.805 39.3827 213.656 39.4787 213.496 39.5C213.346 39.532 213.213 39.5053 213.096 39.42C212.978 39.3347 212.914 39.212 212.904 39.052C212.893 38.9027 212.962 38.7373 213.112 38.556C213.325 38.2893 213.469 38.0227 213.544 37.756C213.618 37.4893 213.656 37.2493 213.656 37.036L213.736 37.58C213.362 37.58 213.058 37.4733 212.824 37.26C212.6 37.036 212.488 36.7427 212.488 36.38C212.488 36.0387 212.594 35.7613 212.808 35.548C213.021 35.324 213.309 35.212 213.672 35.212C214.045 35.212 214.338 35.34 214.552 35.596C214.765 35.8413 214.872 36.1987 214.872 36.668C214.872 36.924 214.845 37.1907 214.792 37.468C214.749 37.7347 214.658 38.012 214.52 38.3C214.392 38.5987 214.2 38.9027 213.944 39.212ZM222.496 37.5C222.219 37.5 222 37.4253 221.84 37.276C221.691 37.116 221.616 36.9027 221.616 36.636C221.616 36.3587 221.691 36.1507 221.84 36.012C222 35.8733 222.219 35.804 222.496 35.804H224.288V27.948H225.28L222.928 29.372C222.725 29.4893 222.533 29.5373 222.352 29.516C222.181 29.484 222.032 29.4093 221.904 29.292C221.787 29.164 221.707 29.0147 221.664 28.844C221.621 28.6733 221.632 28.5027 221.696 28.332C221.771 28.1507 221.909 28.0013 222.112 27.884L224.32 26.556C224.533 26.428 224.747 26.3213 224.96 26.236C225.173 26.14 225.371 26.092 225.552 26.092C225.776 26.092 225.963 26.156 226.112 26.284C226.261 26.4013 226.336 26.5987 226.336 26.876V35.804H227.968C228.245 35.804 228.459 35.8733 228.608 36.012C228.768 36.1507 228.848 36.3587 228.848 36.636C228.848 36.9133 228.768 37.1267 228.608 37.276C228.459 37.4253 228.245 37.5 227.968 37.5H222.496ZM233.514 37.66C233.055 37.66 232.58 37.5907 232.09 37.452C231.599 37.3027 231.14 37.084 230.714 36.796C230.543 36.6893 230.431 36.5507 230.378 36.38C230.324 36.2093 230.314 36.044 230.346 35.884C230.388 35.7133 230.463 35.5693 230.57 35.452C230.687 35.324 230.831 35.2493 231.002 35.228C231.172 35.196 231.359 35.2387 231.562 35.356C231.924 35.5693 232.266 35.7187 232.586 35.804C232.906 35.8893 233.226 35.932 233.546 35.932C234.164 35.932 234.687 35.788 235.114 35.5C235.54 35.212 235.86 34.78 236.074 34.204C236.298 33.6173 236.41 32.8973 236.41 32.044V30.844H236.602C236.527 31.3773 236.351 31.8413 236.074 32.236C235.796 32.6307 235.444 32.9347 235.018 33.148C234.591 33.3507 234.116 33.452 233.594 33.452C232.954 33.452 232.378 33.2973 231.866 32.988C231.364 32.6787 230.97 32.252 230.682 31.708C230.394 31.1533 230.25 30.5293 230.25 29.836C230.25 29.1 230.404 28.4493 230.714 27.884C231.034 27.3187 231.476 26.876 232.042 26.556C232.607 26.2253 233.252 26.06 233.978 26.06C234.916 26.06 235.711 26.2787 236.362 26.716C237.012 27.1533 237.508 27.7933 237.85 28.636C238.191 29.468 238.362 30.476 238.362 31.66C238.362 32.62 238.25 33.4733 238.026 34.22C237.812 34.956 237.498 35.58 237.082 36.092C236.666 36.604 236.154 36.9933 235.546 37.26C234.948 37.5267 234.271 37.66 233.514 37.66ZM234.106 31.82C234.49 31.82 234.826 31.7347 235.114 31.564C235.412 31.3827 235.642 31.1373 235.802 30.828C235.962 30.508 236.042 30.1453 236.042 29.74C236.042 29.324 235.962 28.9613 235.802 28.652C235.642 28.3427 235.412 28.1027 235.114 27.932C234.826 27.7613 234.49 27.676 234.106 27.676C233.722 27.676 233.386 27.7613 233.098 27.932C232.81 28.1027 232.58 28.3427 232.41 28.652C232.25 28.9613 232.17 29.324 232.17 29.74C232.17 30.1453 232.25 30.508 232.41 30.828C232.58 31.1373 232.81 31.3827 233.098 31.564C233.386 31.7347 233.722 31.82 234.106 31.82ZM243.988 37.66C243.113 37.66 242.361 37.5373 241.732 37.292C241.113 37.036 240.633 36.668 240.292 36.188C239.961 35.708 239.796 35.132 239.796 34.46C239.796 33.9267 239.902 33.4573 240.116 33.052C240.34 32.636 240.644 32.3 241.028 32.044C241.412 31.788 241.849 31.628 242.34 31.564V31.9C241.657 31.7507 241.108 31.4253 240.692 30.924C240.286 30.412 240.084 29.804 240.084 29.1C240.084 28.46 240.244 27.916 240.564 27.468C240.884 27.0093 241.337 26.6627 241.924 26.428C242.51 26.1827 243.198 26.06 243.988 26.06C244.788 26.06 245.481 26.1827 246.068 26.428C246.654 26.6627 247.108 27.0093 247.428 27.468C247.748 27.916 247.908 28.46 247.908 29.1C247.908 29.5693 247.812 30.0013 247.62 30.396C247.438 30.7907 247.177 31.116 246.836 31.372C246.505 31.628 246.116 31.7987 245.668 31.884V31.564C246.414 31.6707 247.017 31.9853 247.476 32.508C247.945 33.02 248.18 33.6707 248.18 34.46C248.18 35.132 248.009 35.708 247.668 36.188C247.337 36.668 246.857 37.036 246.228 37.292C245.609 37.5373 244.862 37.66 243.988 37.66ZM243.988 36.06C244.745 36.06 245.316 35.916 245.7 35.628C246.084 35.3293 246.276 34.892 246.276 34.316C246.276 33.74 246.084 33.308 245.7 33.02C245.316 32.732 244.745 32.588 243.988 32.588C243.241 32.588 242.67 32.732 242.276 33.02C241.892 33.308 241.7 33.74 241.7 34.316C241.7 34.892 241.892 35.3293 242.276 35.628C242.67 35.916 243.241 36.06 243.988 36.06ZM243.988 30.988C244.414 30.988 244.777 30.924 245.076 30.796C245.374 30.6573 245.604 30.46 245.764 30.204C245.924 29.948 246.004 29.6493 246.004 29.308C246.004 28.796 245.822 28.396 245.46 28.108C245.108 27.8093 244.617 27.66 243.988 27.66C243.358 27.66 242.868 27.8093 242.516 28.108C242.164 28.396 241.988 28.796 241.988 29.308C241.988 29.8307 242.164 30.2413 242.516 30.54C242.868 30.8387 243.358 30.988 243.988 30.988Z" fill="white"/>
<g clip-path="url(#clip2_1182_4662)">
<path fill-rule="evenodd" clip-rule="evenodd" d="M258.22 27.7141C258.363 27.5767 258.554 27.5 258.752 27.5C258.95 27.5 259.14 27.5767 259.283 27.7141L263.78 31.983C263.849 32.0499 263.905 32.1302 263.943 32.219C263.981 32.3079 264 32.4035 264 32.5C264 32.5966 263.981 32.6921 263.943 32.781C263.905 32.8698 263.849 32.9501 263.78 33.017L259.283 37.286C259.141 37.4234 258.95 37.5001 258.752 37.5001C258.554 37.5001 258.363 37.4234 258.22 37.286C258.151 37.2191 258.095 37.1388 258.057 37.0499C258.02 36.9611 258 36.8655 258 36.769C258 36.6724 258.02 36.5769 258.057 36.488C258.095 36.3992 258.151 36.3189 258.22 36.2519L262.185 32.5L258.22 28.7481C258.151 28.6812 258.095 28.6009 258.057 28.5121C258.019 28.4232 258 28.3277 258 28.2311C258 28.1345 258.019 28.039 258.057 27.9501C258.095 27.8613 258.151 27.781 258.22 27.7141Z" fill="white"/>
</g>
<g clip-path="url(#clip3_1182_4662)">
<path fill-rule="evenodd" clip-rule="evenodd" d="M348.929 22.053C350.184 21.1446 351 19.6677 351 18C351 15.2386 348.761 13 346 13C343.239 13 341 15.2386 341 18C341 19.6677 341.816 21.1446 343.071 22.053C340.102 23.2218 338 26.1154 338 29.5V29.6429C338 30.3924 338.608 31 339.357 31H352.643C353.392 31 354 30.3924 354 29.6429V29.5C354 26.1154 351.898 23.2218 348.929 22.053ZM349.5 18C349.5 19.933 347.933 21.5 346 21.5C344.067 21.5 342.5 19.933 342.5 18C342.5 16.067 344.067 14.5 346 14.5C347.933 14.5 349.5 16.067 349.5 18ZM346 23C342.41 23 339.5 25.9101 339.5 29.5H352.5C352.5 25.9101 349.59 23 346 23Z" fill="white"/>
</g>
<defs>
<clipPath id="clip0_1182_4662">
<rect width="32" height="32" fill="white" transform="translate(0 6)"/>
</clipPath>
<clipPath id="clip1_1182_4662">
<rect width="24" height="24" fill="white" transform="translate(56 10)"/>
</clipPath>
<clipPath id="clip2_1182_4662">
<rect width="16" height="16" fill="white" transform="translate(253 24.5)"/>
</clipPath>
<clipPath id="clip3_1182_4662">
<rect width="24" height="24" fill="white" transform="translate(334 10)"/>
</clipPath>
</defs>
</svg>
