<svg width="346" height="46" viewBox="0 0 346 46" fill="none" xmlns="http://www.w3.org/2000/svg">
<g clip-path="url(#clip0_1201_1435)">
<path d="M39.5966 17.298C39.3937 16.2853 39.1427 15.2683 38.8546 14.2815C38.7967 14.0919 38.6673 13.9315 38.4931 13.8333C38.319 13.735 38.1132 13.7065 37.9184 13.7536C37.4823 13.8588 37.0237 13.8255 36.608 13.6584C36.1922 13.4913 35.8405 13.1989 35.6029 12.8228C35.5466 12.734 35.4731 12.6571 35.3865 12.5965C35.3 12.5359 35.2022 12.4927 35.0988 12.4695C34.9998 12.4478 34.8974 12.446 34.7977 12.4642C34.698 12.4823 34.603 12.52 34.5183 12.5751C34.0277 12.895 33.4692 13.0993 32.8858 13.172C32.3025 13.2447 31.7101 13.1839 31.1544 12.9944C30.5986 12.8048 30.0945 12.4916 29.6811 12.0789C29.2676 11.6662 28.9559 11.1651 28.77 10.6144C28.7067 10.4254 28.5721 10.2677 28.394 10.1742C28.216 10.0807 28.0083 10.0585 27.8141 10.1124C27.4816 10.1959 27.1403 10.2408 26.7971 10.246C25.957 10.246 23.7047 9.34535 23.1526 7.60012C23.0603 7.29839 23.0154 6.98447 23.0195 6.66929C23.033 6.35338 23.1016 6.04213 23.2224 5.7493C23.2973 5.56104 23.2934 5.35111 23.2116 5.16569C23.1297 4.98027 22.9766 4.83453 22.786 4.76053C22.536 4.66091 22.3079 4.5146 22.1141 4.32964C21.8854 4.10553 21.7115 3.83288 21.6056 3.53243C21.5545 3.38789 21.4606 3.26188 21.3359 3.17078C21.2113 3.07967 21.0619 3.02769 20.9069 3.0216C20.7323 3.013 20.5141 3.00224 20.2959 3.00224C14.2093 2.92467 8.91949 4.86592 5.39037 8.46414C2.80207 11.1013 1.72618 14.0144 1.32024 15.111C0.640988 16.9945 0.228257 18.9615 0.0937244 20.9564C-0.0979985 23.1743 0.00470381 25.4074 0.399222 27.599C0.814876 29.8118 1.51144 31.9639 2.47244 34.0047C2.53791 34.1447 4.11572 37.4628 6.27189 38.9365C6.64015 39.1846 7.03822 39.3865 7.45693 39.5376C7.77168 39.6443 8.09735 39.7166 8.42807 39.7531C9.89461 39.9297 10.8876 39.3071 11.7649 38.7577C12.3694 38.3786 12.9433 38.0208 13.6396 37.8958C14.8071 37.7063 15.5818 38.3267 16.4767 39.0334C17.3715 39.7401 18.4146 40.5718 19.9684 40.4641C21.3149 40.3693 22.0133 39.6475 22.6265 39.0097C23.1721 38.4473 23.685 37.9151 24.6234 37.7794C26.498 37.5057 28.137 39.0722 29.7257 40.5804C31.0352 41.8191 32.2659 43 33.5513 43C33.7739 43.0004 33.9951 42.9647 34.206 42.8944C35.2339 42.556 35.8537 41.4336 37.0845 39.2014L37.1413 39.0999C37.7086 38.0681 38.1769 36.986 38.5399 35.868C40.0872 31.2227 40.2988 26.6549 40.3163 24.9076C40.3422 22.3534 40.101 19.8033 39.5966 17.298ZM31.0462 37.2603C29.9899 35.9827 28.6741 34.3904 26.4022 34.1275C26.1848 34.1027 25.9662 34.0905 25.7474 34.0909C25.4614 34.0914 25.1756 34.1102 24.892 34.1469C23.1986 34.3624 22.2491 35.1704 21.4875 35.8168C20.8611 36.3489 20.3679 36.7669 19.6281 36.8165C18.7704 36.8725 18.2248 36.3856 17.5352 35.7758C16.7998 35.1294 15.9639 34.3796 14.5694 34.2418C13.3036 34.1168 11.9854 34.5369 10.6673 35.4764C10.221 35.757 9.71563 35.9331 9.18982 35.9913C8.86583 36.0003 8.54323 35.9461 8.24049 35.8319C8.17702 35.8051 8.11509 35.7748 8.05497 35.7414C7.78597 35.5799 7.54867 35.3719 7.35444 35.1273C6.73686 34.3991 1.40093 27.7435 3.66406 18.4852L3.69895 18.3408C4.1223 16.6021 5.00843 12.9801 8.15095 10.0478C10.5833 7.77247 13.7122 6.35905 17.0463 6.02945L17.1555 6.01869C18.0284 5.93679 19.1196 5.83336 19.556 6.51213C19.7239 6.77926 19.8277 7.08075 19.8594 7.39354C19.8791 7.49507 19.8987 7.60899 19.9271 7.74477C20.0886 8.5721 20.6254 10.6104 22.1094 11.6597C23.0129 12.3061 24.2241 12.5366 25.7561 12.8361C25.9351 12.8705 26.0071 12.8813 26.0509 12.8878L26.1317 12.9051C26.9676 13.1205 27.3146 13.6506 27.7183 14.2668C28.0542 14.7817 28.4341 15.3656 29.1412 15.7879C30.324 16.4946 32.1965 16.6497 33.5845 16.1391L33.7198 16.0896C33.9712 15.9705 34.2487 15.915 34.5273 15.928C35.2951 15.9926 35.8804 17.0958 36.0746 17.4577C36.4257 18.142 36.6924 18.8653 36.869 19.6123C37.1903 20.9176 37.3768 22.2516 37.4255 23.5941V23.7578C37.4255 23.9237 37.4429 24.0788 37.4364 24.2275C37.3821 26.2721 37.1874 28.3107 36.8536 30.3293C36.168 34.1752 34.7716 38.7106 33.0934 38.8356C32.4146 38.9084 31.7794 38.1394 31.0462 37.2603Z" fill="white"/>
<path d="M9.13744 17.9551C7.63813 17.9551 6.46187 19.989 6.46187 22.5832C6.46187 25.1773 7.63813 27.2112 9.13744 27.2112C10.6368 27.2112 11.813 25.1773 11.813 22.5832C11.813 19.989 10.6389 17.9551 9.13744 17.9551Z" fill="white"/>
<path d="M25.1538 17.9551C23.6545 17.9551 22.4782 19.989 22.4782 22.5832C22.4782 25.1773 23.6545 27.2112 25.1538 27.2112C26.6531 27.2112 27.8294 25.1773 27.8294 22.5832C27.8294 19.989 26.6552 17.9551 25.1538 17.9551Z" fill="white"/>
<path fill-rule="evenodd" clip-rule="evenodd" d="M68.5027 7.70647C68.7464 7.58966 69.0265 7.57057 69.2841 7.65319C69.5418 7.73581 69.757 7.91372 69.8847 8.14962C70.1095 8.64388 70.2299 9.1782 70.2386 9.71994C70.2963 10.8168 70.2804 12.4816 69.39 12.8157C68.0188 13.3296 67.6789 11.8951 67.62 10.82C67.5733 10.1774 67.6107 9.53161 67.7312 8.8985C67.8737 8.25805 68.0117 7.9672 68.5027 7.70647ZM70.1819 5.83758C70.0086 5.8013 69.7903 5.4343 69.3935 5.26184C69.017 5.10385 68.6111 5.02568 68.2021 5.03238C66.5056 5.02432 65.5063 6.22068 65.0946 7.66166C64.4068 10.0705 64.3834 15.1686 67.9214 15.4751C69.5051 15.6117 69.6305 14.9822 70.0045 14.8823C69.968 15.6239 69.9848 16.3672 70.0549 17.1065C70.2537 17.7383 71.2067 17.56 71.8086 17.5608C72.768 17.5608 72.9466 17.4515 72.9481 16.4792V9.81599C72.9481 4.96158 73.402 5.17222 71.6243 5.17357C71.1636 5.11359 70.6952 5.15959 70.2555 5.308L70.1819 5.83758Z" fill="white"/>
<path fill-rule="evenodd" clip-rule="evenodd" d="M52.5992 11.4357C54.5294 10.8936 54.9846 13.2845 53.5613 13.7032C51.6683 14.2595 50.9258 11.9058 52.5992 11.4357ZM51.4679 8.61916C51.7307 8.26042 51.645 8.00937 52.0987 7.78932C52.491 7.62952 52.9246 7.59704 53.3368 7.69659C54.2295 7.94304 54.1605 8.8365 54.1605 9.82195C53.5789 9.45141 52.9012 9.25459 52.209 9.25514C50.1263 9.27978 48.4911 10.7454 48.728 12.9938C48.9758 15.3421 51.1601 16.3199 53.128 15.7432C54.2368 15.4179 54.1265 15.0684 54.613 14.822C54.9992 15.2767 54.9153 15.3856 55.5334 15.6616C55.8615 15.8081 57.9814 16.3337 58.0658 15.0231C58.1129 14.4502 58.0953 13.8738 58.0132 13.3048C57.5248 13.2994 57.1844 13.38 57.1023 12.9203C56.7995 11.2229 57.9577 6.84618 55.5514 5.60203C54.1995 4.98008 52.6632 4.87004 51.2345 5.29284C50.1353 5.64366 48.8745 6.69618 49.068 8.17304C49.4108 8.43607 50.9501 8.6595 51.4679 8.61916Z" fill="white"/>
<path fill-rule="evenodd" clip-rule="evenodd" d="M52.7521 32.5142C52.3604 32.1258 51.387 32.0155 50.6835 32.1947C49.9923 32.3713 50.1884 33.4171 50.1884 34.1595V38.9987C50.1884 42.0272 49.825 42.7415 51.2926 42.7423C52.1153 42.7423 53.0258 42.939 53.1252 42.0984C53.2981 40.6346 52.8016 36.2046 53.3912 35.1354C53.4802 35.0016 53.5968 34.8878 53.7334 34.8015C53.87 34.7151 54.0236 34.6582 54.184 34.6345C54.3444 34.6107 54.508 34.6206 54.6643 34.6636C54.8206 34.7065 54.9659 34.7815 55.0908 34.8836C55.5823 35.3317 55.5587 36.0294 55.5582 36.8103C55.5564 38.4234 55.5564 40.0364 55.5582 41.6495C55.5582 42.7557 55.8727 42.7454 56.9343 42.7441C59.026 42.7405 58.5032 42.7889 58.5032 37.0845C58.5032 36.2982 58.392 35.5163 58.8871 34.9961C58.9887 34.878 59.1149 34.7831 59.2572 34.7177C59.3994 34.6522 59.5543 34.6179 59.7112 34.6171C59.868 34.6162 60.0233 34.6489 60.1662 34.7127C60.3092 34.7766 60.4365 34.8702 60.5394 34.9871C61.1525 35.6781 60.9138 38.3705 60.9138 39.458C60.9138 42.7957 60.602 42.7419 62.4814 42.7441C63.5479 42.7441 63.8601 42.766 63.8594 41.6495C63.8594 40.025 63.9706 35.6167 63.7387 34.5646C63.6431 33.9618 63.3631 33.4023 62.9361 32.9613C62.5092 32.5203 61.9557 32.2188 61.3501 32.0973C60.8505 31.9768 60.3274 31.9903 59.8349 32.1363C59.3423 32.2824 58.8982 32.5557 58.5485 32.928C58.4295 33.0291 58.3363 33.1563 58.2762 33.2995L58.0226 33.6306C57.2906 31.9571 54.8852 31.6203 53.7052 32.5221C52.9551 33.094 53.107 33.3575 52.818 33.5802L52.7521 32.5142Z" fill="white"/>
<path fill-rule="evenodd" clip-rule="evenodd" d="M67.8224 36.1541C67.8588 35.253 68.1891 34.2874 69.1326 34.3515C70.0272 34.4124 70.2994 35.2893 70.3263 36.1541H67.8224ZM67.7417 37.9643H70.4316C71.1392 37.9643 72.4481 38.1569 72.8901 37.7734C72.9709 36.4416 72.7744 35.1076 72.3127 33.8537C71.8439 32.8011 71.0143 32.1904 69.6006 32.0708C66.4436 31.8047 65.0884 33.4531 64.8211 36.2643C64.542 39.2009 65.0313 41.9036 67.3935 42.634C68.6648 43.0161 70.0352 42.9113 71.2317 42.3406C71.7493 42.0536 72.1736 41.627 72.4548 41.1108C72.7361 40.5947 72.8628 40.0101 72.8201 39.4255C72.3951 39.0352 71.0288 38.8816 70.3962 38.9707C70.2668 39.5129 70.3354 39.7324 69.9115 40.0385C69.7297 40.157 69.5228 40.2326 69.3067 40.2595C69.0905 40.2864 68.8711 40.2638 68.6652 40.1935C67.9105 39.9218 67.7825 38.9433 67.7417 37.9643Z" fill="white"/>
<path fill-rule="evenodd" clip-rule="evenodd" d="M69.881 25.6377C69.5579 28.0788 67.9912 27.1894 67.7694 26.8704C67.1735 26.0123 67.076 22.5062 68.0272 21.8277C68.1379 21.7455 68.2644 21.6865 68.3991 21.6545C68.5337 21.6225 68.6736 21.6181 68.8101 21.6416C68.9465 21.6652 69.0766 21.7161 69.1923 21.7912C69.308 21.8664 69.4068 21.9642 69.4827 22.0786C70.0228 22.8529 70.0149 24.6273 69.881 25.6377ZM64.4263 25.8205C64.5806 27.3247 65.0617 28.4806 65.9521 29.1196C67.4857 30.2196 71.4481 30.4925 72.5056 27.4421C72.9055 26.0518 73.0202 24.5967 72.8428 23.1621C72.4902 20.0417 70.5904 18.4887 67.3732 19.1855C64.4027 19.829 64.169 23.314 64.4263 25.8205Z" fill="white"/>
<path fill-rule="evenodd" clip-rule="evenodd" d="M58.2014 23.1863C57.3872 23.2383 57.4753 23.6657 57.4753 24.4513C57.4753 25.4101 57.4103 25.4155 58.1751 25.7292C58.5385 29.0481 57.3496 29.7457 59.6755 29.7452C61.4868 29.7452 61.1446 29.6771 61.1446 25.6844C63.1602 25.6844 63.427 25.9213 63.4233 24.4513C63.4192 22.9583 63.2295 23.1863 61.1446 23.1863C61.1515 20.6225 62.6876 22.1728 63.5994 21.5706C63.9171 21.1081 63.7732 19.804 63.6021 19.2993C62.4794 18.896 60.4361 18.995 59.5085 19.634C58.4088 20.3922 58.2019 21.4833 58.2014 23.1863Z" fill="white"/>
<path fill-rule="evenodd" clip-rule="evenodd" d="M62.7081 9.90737C63.2527 9.90737 63.7877 9.9423 63.9627 9.46869C64.0406 8.96615 64.0467 8.45531 63.9809 7.95109C63.7993 7.18353 62.5399 7.41028 61.2678 7.41028C60.425 7.41028 58.6427 7.08768 58.479 7.98737C58.4154 8.51817 58.4404 9.05566 58.5529 9.57848C58.7485 9.9846 59.2419 9.8763 59.7638 9.93153L59.7593 13.2553C59.2387 13.2472 58.6977 13.2006 58.5189 13.6749C58.4349 14.2064 58.4299 14.7471 58.504 15.2799C58.6855 15.974 60.1487 15.7491 61.3605 15.7491C62.2319 15.7491 63.902 16.0658 64.0055 15.0953C64.2084 13.1879 63.6855 13.2516 62.7079 13.2516L62.7081 9.90737Z" fill="white"/>
<path fill-rule="evenodd" clip-rule="evenodd" d="M60.5315 3.12538C58.039 4.00449 59.4255 7.27856 61.7114 6.60508C61.9523 6.53833 62.1772 6.42461 62.3729 6.27063C62.5685 6.11664 62.731 5.92552 62.8506 5.70855C62.9701 5.49157 63.0445 5.25313 63.0692 5.00732C63.0939 4.7615 63.0685 4.51329 62.9944 4.27733C62.9099 4.04167 62.7789 3.82482 62.6092 3.63925C62.4395 3.45369 62.2343 3.30305 62.0054 3.19601C61.7766 3.08897 61.5286 3.02763 61.2756 3.0155C61.0227 3.00338 60.7698 3.04072 60.5315 3.12538Z" fill="white"/>
</g>
<g clip-path="url(#clip1_1201_1435)">
<path d="M123.432 30.6133C122.945 30.3575 122.528 29.9875 122.215 29.5352C119.752 26.0292 118.5 23.3961 118.5 21.7051C118.495 19.9367 119.179 18.2356 120.406 16.9629C121 16.3419 121.713 15.8474 122.503 15.5098C123.293 15.1721 124.143 14.998 125.002 14.998C125.861 14.998 126.711 15.1721 127.501 15.5098C128.291 15.8474 129.004 16.3419 129.598 16.9629C130.822 18.2376 131.503 19.9379 131.498 21.7051C131.498 23.3961 130.246 26.0292 127.789 29.5352C127.321 30.2175 126.618 30.7036 125.814 30.9023C125.011 31.101 124.162 30.9987 123.43 30.6133H123.432ZM121.401 18C120.442 18.9959 119.908 20.3262 119.912 21.709C119.912 23.047 121.135 25.5265 123.354 28.6875C123.54 28.9519 123.787 29.1681 124.073 29.3184C124.359 29.4696 124.677 29.5496 125.001 29.5508C125.322 29.5495 125.638 29.4694 125.922 29.3184C126.209 29.1669 126.458 28.9511 126.647 28.6875C128.868 25.5275 130.09 23.047 130.09 21.709C130.091 20.3247 129.553 18.9945 128.59 18C128.126 17.5125 127.568 17.1246 126.95 16.8594C126.332 16.5941 125.666 16.457 124.993 16.457C124.32 16.457 123.655 16.5941 123.037 16.8594C122.419 17.1246 121.861 17.5125 121.397 18H121.401ZM124.415 24.4492C123.834 24.3314 123.3 24.0453 122.88 23.627C122.46 23.2079 122.173 22.6736 122.057 22.0918C121.939 21.5095 122 20.9047 122.231 20.3574C122.42 19.9012 122.717 19.499 123.099 19.1855C123.48 18.8721 123.933 18.6571 124.417 18.5605C124.901 18.464 125.402 18.4896 125.874 18.6328C126.346 18.776 126.776 19.0338 127.125 19.3828C127.474 19.7319 127.732 20.1604 127.875 20.6328C128.018 21.1052 128.043 21.6058 127.946 22.0898C127.85 22.5739 127.635 23.0269 127.321 23.4082C127.008 23.7895 126.606 24.087 126.149 24.2754C125.782 24.4266 125.388 24.5059 124.991 24.5059C124.798 24.5044 124.606 24.4837 124.417 24.4453L124.415 24.4492ZM124.705 20.0332C124.415 20.0921 124.149 20.2355 123.94 20.4453C123.729 20.6529 123.585 20.9197 123.528 21.2109C123.485 21.4285 123.49 21.6539 123.544 21.8691C123.598 22.0844 123.699 22.2838 123.84 22.4551C123.981 22.6264 124.159 22.7652 124.359 22.8594C124.56 22.9536 124.779 23.0011 125.001 23C125.211 23.0005 125.418 22.956 125.61 22.8711C125.802 22.7862 125.975 22.6634 126.116 22.5078C126.257 22.3522 126.364 22.1682 126.43 21.9688C126.495 21.7693 126.518 21.5585 126.497 21.3496C126.476 21.1407 126.411 20.9382 126.307 20.7559C126.202 20.5735 126.061 20.4153 125.892 20.291C125.722 20.1668 125.529 20.0799 125.324 20.0352C125.119 19.9904 124.907 19.9888 124.701 20.0312L124.705 20.0332Z" fill="white"/>
</g>
<path d="M151.284 14.14C150.509 14.14 149.842 13.9953 149.282 13.706C148.722 13.4167 148.288 13.006 147.98 12.474C147.681 11.942 147.532 11.312 147.532 10.584C147.532 9.87467 147.677 9.254 147.966 8.722C148.265 8.19 148.671 7.77467 149.184 7.476C149.707 7.168 150.299 7.014 150.962 7.014C151.447 7.014 151.881 7.09333 152.264 7.252C152.656 7.41067 152.987 7.63933 153.258 7.938C153.538 8.23667 153.748 8.60067 153.888 9.03C154.037 9.45 154.112 9.926 154.112 10.458C154.112 10.626 154.051 10.7567 153.93 10.85C153.818 10.934 153.655 10.976 153.44 10.976H148.946V9.968H152.88L152.656 10.178C152.656 9.74867 152.591 9.38933 152.46 9.1C152.339 8.81067 152.157 8.59133 151.914 8.442C151.681 8.28333 151.387 8.204 151.032 8.204C150.64 8.204 150.304 8.29733 150.024 8.484C149.753 8.66133 149.543 8.918 149.394 9.254C149.254 9.58067 149.184 9.97267 149.184 10.43V10.528C149.184 11.2933 149.361 11.8673 149.716 12.25C150.08 12.6233 150.612 12.81 151.312 12.81C151.555 12.81 151.825 12.782 152.124 12.726C152.432 12.6607 152.721 12.5533 152.992 12.404C153.188 12.292 153.361 12.2453 153.51 12.264C153.659 12.2733 153.776 12.3247 153.86 12.418C153.953 12.5113 154.009 12.628 154.028 12.768C154.047 12.8987 154.019 13.034 153.944 13.174C153.879 13.314 153.762 13.4353 153.594 13.538C153.267 13.7433 152.889 13.8973 152.46 14C152.04 14.0933 151.648 14.14 151.284 14.14ZM156.366 14.112C156.086 14.112 155.871 14.0373 155.722 13.888C155.573 13.7293 155.498 13.5053 155.498 13.216V7.924C155.498 7.63467 155.573 7.41533 155.722 7.266C155.871 7.11667 156.081 7.042 156.352 7.042C156.623 7.042 156.833 7.11667 156.982 7.266C157.131 7.41533 157.206 7.63467 157.206 7.924V8.876L157.052 8.526C157.257 8.03133 157.575 7.658 158.004 7.406C158.443 7.14467 158.937 7.014 159.488 7.014C160.039 7.014 160.491 7.11667 160.846 7.322C161.201 7.52733 161.467 7.84 161.644 8.26C161.821 8.67067 161.91 9.19333 161.91 9.828V13.216C161.91 13.5053 161.835 13.7293 161.686 13.888C161.537 14.0373 161.322 14.112 161.042 14.112C160.762 14.112 160.543 14.0373 160.384 13.888C160.235 13.7293 160.16 13.5053 160.16 13.216V9.912C160.16 9.38 160.057 8.99267 159.852 8.75C159.656 8.50733 159.348 8.386 158.928 8.386C158.415 8.386 158.004 8.54933 157.696 8.876C157.397 9.19333 157.248 9.618 157.248 10.15V13.216C157.248 13.8133 156.954 14.112 156.366 14.112ZM166.823 14.14C166.217 14.14 165.708 14.0373 165.297 13.832C164.896 13.6267 164.597 13.328 164.401 12.936C164.205 12.5347 164.107 12.04 164.107 11.452V8.47H163.379C163.155 8.47 162.983 8.414 162.861 8.302C162.74 8.18067 162.679 8.01733 162.679 7.812C162.679 7.59733 162.74 7.434 162.861 7.322C162.983 7.21 163.155 7.154 163.379 7.154H164.107V5.88C164.107 5.59067 164.182 5.37133 164.331 5.222C164.49 5.07267 164.709 4.998 164.989 4.998C165.269 4.998 165.484 5.07267 165.633 5.222C165.783 5.37133 165.857 5.59067 165.857 5.88V7.154H167.341C167.565 7.154 167.738 7.21 167.859 7.322C167.981 7.434 168.041 7.59733 168.041 7.812C168.041 8.01733 167.981 8.18067 167.859 8.302C167.738 8.414 167.565 8.47 167.341 8.47H165.857V11.354C165.857 11.802 165.955 12.138 166.151 12.362C166.347 12.586 166.665 12.698 167.103 12.698C167.262 12.698 167.402 12.684 167.523 12.656C167.645 12.628 167.752 12.6093 167.845 12.6C167.957 12.5907 168.051 12.628 168.125 12.712C168.2 12.7867 168.237 12.9453 168.237 13.188C168.237 13.3747 168.205 13.5427 168.139 13.692C168.083 13.832 167.976 13.93 167.817 13.986C167.696 14.0233 167.537 14.056 167.341 14.084C167.145 14.1213 166.973 14.14 166.823 14.14ZM169.956 14.112C169.667 14.112 169.443 14.0373 169.284 13.888C169.135 13.7293 169.06 13.5053 169.06 13.216V7.924C169.06 7.63467 169.135 7.41533 169.284 7.266C169.434 7.11667 169.644 7.042 169.914 7.042C170.185 7.042 170.395 7.11667 170.544 7.266C170.694 7.41533 170.768 7.63467 170.768 7.924V8.806H170.628C170.759 8.246 171.016 7.82133 171.398 7.532C171.781 7.24267 172.29 7.07 172.924 7.014C173.12 6.99533 173.274 7.04667 173.386 7.168C173.508 7.28 173.578 7.45733 173.596 7.7C173.615 7.93333 173.559 8.12467 173.428 8.274C173.307 8.414 173.12 8.498 172.868 8.526L172.56 8.554C171.991 8.61 171.562 8.78733 171.272 9.086C170.983 9.37533 170.838 9.786 170.838 10.318V13.216C170.838 13.5053 170.764 13.7293 170.614 13.888C170.465 14.0373 170.246 14.112 169.956 14.112ZM177.807 14.14C177.033 14.14 176.365 13.9953 175.805 13.706C175.245 13.4167 174.811 13.006 174.503 12.474C174.205 11.942 174.055 11.312 174.055 10.584C174.055 9.87467 174.2 9.254 174.489 8.722C174.788 8.19 175.194 7.77467 175.707 7.476C176.23 7.168 176.823 7.014 177.485 7.014C177.971 7.014 178.405 7.09333 178.787 7.252C179.179 7.41067 179.511 7.63933 179.781 7.938C180.061 8.23667 180.271 8.60067 180.411 9.03C180.561 9.45 180.635 9.926 180.635 10.458C180.635 10.626 180.575 10.7567 180.453 10.85C180.341 10.934 180.178 10.976 179.963 10.976H175.469V9.968H179.403L179.179 10.178C179.179 9.74867 179.114 9.38933 178.983 9.1C178.862 8.81067 178.68 8.59133 178.437 8.442C178.204 8.28333 177.91 8.204 177.555 8.204C177.163 8.204 176.827 8.29733 176.547 8.484C176.277 8.66133 176.067 8.918 175.917 9.254C175.777 9.58067 175.707 9.97267 175.707 10.43V10.528C175.707 11.2933 175.885 11.8673 176.239 12.25C176.603 12.6233 177.135 12.81 177.835 12.81C178.078 12.81 178.349 12.782 178.647 12.726C178.955 12.6607 179.245 12.5533 179.515 12.404C179.711 12.292 179.884 12.2453 180.033 12.264C180.183 12.2733 180.299 12.3247 180.383 12.418C180.477 12.5113 180.533 12.628 180.551 12.768C180.57 12.8987 180.542 13.034 180.467 13.174C180.402 13.314 180.285 13.4353 180.117 13.538C179.791 13.7433 179.413 13.8973 178.983 14C178.563 14.0933 178.171 14.14 177.807 14.14ZM185.213 16.66C184.709 16.66 184.219 16.6133 183.743 16.52C183.277 16.4267 182.852 16.282 182.469 16.086C182.292 15.9927 182.171 15.8807 182.105 15.75C182.049 15.6193 182.031 15.484 182.049 15.344C182.077 15.2133 182.133 15.0967 182.217 14.994C182.311 14.8913 182.423 14.8213 182.553 14.784C182.684 14.7467 182.819 14.7653 182.959 14.84C183.37 15.0453 183.757 15.176 184.121 15.232C184.495 15.2973 184.812 15.33 185.073 15.33C185.699 15.33 186.165 15.176 186.473 14.868C186.791 14.5693 186.949 14.1213 186.949 13.524V12.264H187.075C186.935 12.74 186.641 13.1227 186.193 13.412C185.755 13.692 185.255 13.832 184.695 13.832C184.079 13.832 183.543 13.692 183.085 13.412C182.628 13.1227 182.273 12.7213 182.021 12.208C181.769 11.6947 181.643 11.0973 181.643 10.416C181.643 9.90267 181.713 9.44067 181.853 9.03C182.003 8.61 182.208 8.25067 182.469 7.952C182.74 7.65333 183.062 7.42467 183.435 7.266C183.818 7.098 184.238 7.014 184.695 7.014C185.274 7.014 185.778 7.15867 186.207 7.448C186.646 7.728 186.931 8.10133 187.061 8.568L186.921 8.918V7.924C186.921 7.63467 186.996 7.41533 187.145 7.266C187.304 7.11667 187.519 7.042 187.789 7.042C188.069 7.042 188.284 7.11667 188.433 7.266C188.583 7.41533 188.657 7.63467 188.657 7.924V13.314C188.657 14.4247 188.363 15.26 187.775 15.82C187.187 16.38 186.333 16.66 185.213 16.66ZM185.171 12.502C185.535 12.502 185.848 12.418 186.109 12.25C186.371 12.082 186.571 11.844 186.711 11.536C186.861 11.2187 186.935 10.8453 186.935 10.416C186.935 9.772 186.777 9.268 186.459 8.904C186.142 8.53067 185.713 8.344 185.171 8.344C184.807 8.344 184.495 8.428 184.233 8.596C183.972 8.764 183.767 9.002 183.617 9.31C183.477 9.618 183.407 9.98667 183.407 10.416C183.407 11.06 183.566 11.5687 183.883 11.942C184.201 12.3153 184.63 12.502 185.171 12.502ZM192.725 14.14C192.23 14.14 191.787 14.0467 191.395 13.86C191.012 13.664 190.709 13.4027 190.485 13.076C190.27 12.7493 190.163 12.3807 190.163 11.97C190.163 11.466 190.293 11.0693 190.555 10.78C190.816 10.4813 191.241 10.2667 191.829 10.136C192.417 10.0053 193.205 9.94 194.195 9.94H194.895V10.948H194.209C193.63 10.948 193.168 10.976 192.823 11.032C192.477 11.088 192.23 11.186 192.081 11.326C191.941 11.4567 191.871 11.6433 191.871 11.886C191.871 12.194 191.978 12.446 192.193 12.642C192.407 12.838 192.706 12.936 193.089 12.936C193.397 12.936 193.667 12.866 193.901 12.726C194.143 12.5767 194.335 12.376 194.475 12.124C194.615 11.872 194.685 11.5827 194.685 11.256V9.646C194.685 9.17933 194.582 8.84333 194.377 8.638C194.171 8.43267 193.826 8.33 193.341 8.33C193.07 8.33 192.776 8.36267 192.459 8.428C192.151 8.49333 191.824 8.60533 191.479 8.764C191.301 8.848 191.143 8.87133 191.003 8.834C190.872 8.79667 190.769 8.722 190.695 8.61C190.62 8.48867 190.583 8.358 190.583 8.218C190.583 8.078 190.62 7.94267 190.695 7.812C190.769 7.672 190.895 7.56933 191.073 7.504C191.502 7.32667 191.913 7.20067 192.305 7.126C192.706 7.05133 193.07 7.014 193.397 7.014C194.069 7.014 194.619 7.11667 195.049 7.322C195.487 7.52733 195.814 7.84 196.029 8.26C196.243 8.67067 196.351 9.20267 196.351 9.856V13.216C196.351 13.5053 196.281 13.7293 196.141 13.888C196.001 14.0373 195.8 14.112 195.539 14.112C195.277 14.112 195.072 14.0373 194.923 13.888C194.783 13.7293 194.713 13.5053 194.713 13.216V12.544H194.825C194.759 12.8707 194.629 13.1553 194.433 13.398C194.246 13.6313 194.008 13.8133 193.719 13.944C193.429 14.0747 193.098 14.14 192.725 14.14ZM198.995 14.112C198.715 14.112 198.5 14.0373 198.351 13.888C198.201 13.7293 198.127 13.5053 198.127 13.216V7.924C198.127 7.63467 198.201 7.41533 198.351 7.266C198.5 7.11667 198.71 7.042 198.981 7.042C199.251 7.042 199.461 7.11667 199.611 7.266C199.76 7.41533 199.835 7.63467 199.835 7.924V8.876L199.681 8.526C199.886 8.03133 200.203 7.658 200.633 7.406C201.071 7.14467 201.566 7.014 202.117 7.014C202.667 7.014 203.12 7.11667 203.475 7.322C203.829 7.52733 204.095 7.84 204.273 8.26C204.45 8.67067 204.539 9.19333 204.539 9.828V13.216C204.539 13.5053 204.464 13.7293 204.315 13.888C204.165 14.0373 203.951 14.112 203.671 14.112C203.391 14.112 203.171 14.0373 203.013 13.888C202.863 13.7293 202.789 13.5053 202.789 13.216V9.912C202.789 9.38 202.686 8.99267 202.481 8.75C202.285 8.50733 201.977 8.386 201.557 8.386C201.043 8.386 200.633 8.54933 200.325 8.876C200.026 9.19333 199.877 9.618 199.877 10.15V13.216C199.877 13.8133 199.583 14.112 198.995 14.112ZM208.948 14.14C208.351 14.14 207.824 13.9953 207.366 13.706C206.918 13.4167 206.568 13.006 206.316 12.474C206.064 11.9327 205.938 11.298 205.938 10.57C205.938 9.83267 206.064 9.20267 206.316 8.68C206.568 8.148 206.918 7.73733 207.366 7.448C207.824 7.15867 208.351 7.014 208.948 7.014C209.518 7.014 210.012 7.154 210.432 7.434C210.862 7.714 211.151 8.08267 211.3 8.54H211.146V4.9C211.146 4.61067 211.221 4.39133 211.37 4.242C211.52 4.09267 211.734 4.018 212.014 4.018C212.294 4.018 212.509 4.09267 212.658 4.242C212.817 4.39133 212.896 4.61067 212.896 4.9V13.216C212.896 13.5053 212.822 13.7293 212.672 13.888C212.523 14.0373 212.308 14.112 212.028 14.112C211.748 14.112 211.534 14.0373 211.384 13.888C211.235 13.7293 211.16 13.5053 211.16 13.216V12.124L211.314 12.544C211.174 13.0293 210.89 13.4167 210.46 13.706C210.031 13.9953 209.527 14.14 208.948 14.14ZM209.438 12.81C209.784 12.81 210.087 12.726 210.348 12.558C210.61 12.39 210.81 12.1427 210.95 11.816C211.1 11.48 211.174 11.0647 211.174 10.57C211.174 9.82333 211.016 9.268 210.698 8.904C210.381 8.53067 209.961 8.344 209.438 8.344C209.093 8.344 208.79 8.428 208.528 8.596C208.267 8.75467 208.062 9.002 207.912 9.338C207.772 9.66467 207.702 10.0753 207.702 10.57C207.702 11.3073 207.861 11.8673 208.178 12.25C208.496 12.6233 208.916 12.81 209.438 12.81ZM217.833 14.14C217.123 14.14 216.507 13.9953 215.985 13.706C215.462 13.4167 215.056 13.006 214.767 12.474C214.477 11.9327 214.333 11.298 214.333 10.57C214.333 10.0193 214.412 9.52933 214.571 9.1C214.739 8.66133 214.977 8.288 215.285 7.98C215.593 7.66267 215.961 7.42467 216.391 7.266C216.82 7.098 217.301 7.014 217.833 7.014C218.542 7.014 219.158 7.15867 219.681 7.448C220.203 7.73733 220.609 8.148 220.899 8.68C221.188 9.212 221.333 9.842 221.333 10.57C221.333 11.1207 221.249 11.6153 221.081 12.054C220.922 12.4927 220.689 12.8707 220.381 13.188C220.073 13.496 219.704 13.734 219.275 13.902C218.845 14.0607 218.365 14.14 217.833 14.14ZM217.833 12.81C218.178 12.81 218.481 12.726 218.743 12.558C219.004 12.39 219.205 12.1427 219.345 11.816C219.494 11.48 219.569 11.0647 219.569 10.57C219.569 9.82333 219.41 9.268 219.093 8.904C218.775 8.53067 218.355 8.344 217.833 8.344C217.487 8.344 217.184 8.428 216.923 8.596C216.661 8.75467 216.456 9.002 216.307 9.338C216.167 9.66467 216.097 10.0753 216.097 10.57C216.097 11.3073 216.255 11.8673 216.573 12.25C216.89 12.6233 217.31 12.81 217.833 12.81ZM229.952 14.14C229.177 14.14 228.51 13.9953 227.95 13.706C227.39 13.4167 226.956 13.006 226.648 12.474C226.349 11.942 226.2 11.312 226.2 10.584C226.2 9.87467 226.345 9.254 226.634 8.722C226.933 8.19 227.339 7.77467 227.852 7.476C228.375 7.168 228.967 7.014 229.63 7.014C230.115 7.014 230.549 7.09333 230.932 7.252C231.324 7.41067 231.655 7.63933 231.926 7.938C232.206 8.23667 232.416 8.60067 232.556 9.03C232.705 9.45 232.78 9.926 232.78 10.458C232.78 10.626 232.719 10.7567 232.598 10.85C232.486 10.934 232.323 10.976 232.108 10.976H227.614V9.968H231.548L231.324 10.178C231.324 9.74867 231.259 9.38933 231.128 9.1C231.007 8.81067 230.825 8.59133 230.582 8.442C230.349 8.28333 230.055 8.204 229.7 8.204C229.308 8.204 228.972 8.29733 228.692 8.484C228.421 8.66133 228.211 8.918 228.062 9.254C227.922 9.58067 227.852 9.97267 227.852 10.43V10.528C227.852 11.2933 228.029 11.8673 228.384 12.25C228.748 12.6233 229.28 12.81 229.98 12.81C230.223 12.81 230.493 12.782 230.792 12.726C231.1 12.6607 231.389 12.5533 231.66 12.404C231.856 12.292 232.029 12.2453 232.178 12.264C232.327 12.2733 232.444 12.3247 232.528 12.418C232.621 12.5113 232.677 12.628 232.696 12.768C232.715 12.8987 232.687 13.034 232.612 13.174C232.547 13.314 232.43 13.4353 232.262 13.538C231.935 13.7433 231.557 13.8973 231.128 14C230.708 14.0933 230.316 14.14 229.952 14.14ZM235.062 14.112C234.782 14.112 234.567 14.0373 234.418 13.888C234.269 13.7293 234.194 13.5053 234.194 13.216V7.924C234.194 7.63467 234.269 7.41533 234.418 7.266C234.567 7.11667 234.777 7.042 235.048 7.042C235.319 7.042 235.529 7.11667 235.678 7.266C235.827 7.41533 235.902 7.63467 235.902 7.924V8.946L235.748 8.526C235.935 8.05933 236.224 7.69067 236.616 7.42C237.008 7.14933 237.475 7.014 238.016 7.014C238.567 7.014 239.019 7.14467 239.374 7.406C239.729 7.66733 239.976 8.06867 240.116 8.61H239.92C240.107 8.11533 240.415 7.728 240.844 7.448C241.273 7.15867 241.768 7.014 242.328 7.014C242.851 7.014 243.28 7.11667 243.616 7.322C243.961 7.52733 244.218 7.84 244.386 8.26C244.554 8.67067 244.638 9.19333 244.638 9.828V13.216C244.638 13.5053 244.559 13.7293 244.4 13.888C244.251 14.0373 244.036 14.112 243.756 14.112C243.476 14.112 243.261 14.0373 243.112 13.888C242.963 13.7293 242.888 13.5053 242.888 13.216V9.898C242.888 9.37533 242.799 8.99267 242.622 8.75C242.454 8.50733 242.165 8.386 241.754 8.386C241.297 8.386 240.937 8.54933 240.676 8.876C240.415 9.19333 240.284 9.63667 240.284 10.206V13.216C240.284 13.5053 240.209 13.7293 240.06 13.888C239.911 14.0373 239.696 14.112 239.416 14.112C239.136 14.112 238.917 14.0373 238.758 13.888C238.609 13.7293 238.534 13.5053 238.534 13.216V9.898C238.534 9.37533 238.445 8.99267 238.268 8.75C238.1 8.50733 237.815 8.386 237.414 8.386C236.957 8.386 236.597 8.54933 236.336 8.876C236.075 9.19333 235.944 9.63667 235.944 10.206V13.216C235.944 13.8133 235.65 14.112 235.062 14.112Z" fill="#EECFFC"/>
<path d="M149.538 39.144C149.166 39.144 148.878 39.042 148.674 38.838C148.482 38.622 148.386 38.328 148.386 37.956V27.48C148.386 27.096 148.488 26.808 148.692 26.616C148.896 26.412 149.184 26.31 149.556 26.31H153.894C155.286 26.31 156.36 26.646 157.116 27.318C157.872 27.978 158.25 28.908 158.25 30.108C158.25 30.888 158.076 31.56 157.728 32.124C157.392 32.688 156.9 33.12 156.252 33.42C155.604 33.72 154.818 33.87 153.894 33.87L154.056 33.6H154.65C155.142 33.6 155.568 33.72 155.928 33.96C156.3 34.2 156.624 34.578 156.9 35.094L158.25 37.596C158.394 37.848 158.46 38.094 158.448 38.334C158.436 38.574 158.346 38.772 158.178 38.928C158.01 39.072 157.764 39.144 157.44 39.144C157.116 39.144 156.852 39.078 156.648 38.946C156.444 38.802 156.264 38.586 156.108 38.298L154.29 34.95C154.074 34.542 153.816 34.272 153.516 34.14C153.228 33.996 152.856 33.924 152.4 33.924H150.69V37.956C150.69 38.328 150.594 38.622 150.402 38.838C150.21 39.042 149.922 39.144 149.538 39.144ZM150.69 32.214H153.498C154.326 32.214 154.95 32.046 155.37 31.71C155.802 31.362 156.018 30.846 156.018 30.162C156.018 29.49 155.802 28.986 155.37 28.65C154.95 28.302 154.326 28.128 153.498 28.128H150.69V32.214ZM163.696 39.18C162.964 39.18 162.358 39.048 161.878 38.784C161.398 38.508 161.038 38.1 160.798 37.56C160.57 37.02 160.456 36.348 160.456 35.544V31.188C160.456 30.804 160.552 30.522 160.744 30.342C160.936 30.15 161.212 30.054 161.572 30.054C161.932 30.054 162.208 30.15 162.4 30.342C162.604 30.522 162.706 30.804 162.706 31.188V35.58C162.706 36.204 162.832 36.666 163.084 36.966C163.336 37.266 163.738 37.416 164.29 37.416C164.89 37.416 165.382 37.212 165.766 36.804C166.15 36.384 166.342 35.832 166.342 35.148V31.188C166.342 30.804 166.438 30.522 166.63 30.342C166.822 30.15 167.098 30.054 167.458 30.054C167.818 30.054 168.094 30.15 168.286 30.342C168.49 30.522 168.592 30.804 168.592 31.188V37.992C168.592 38.76 168.226 39.144 167.494 39.144C167.146 39.144 166.876 39.048 166.684 38.856C166.492 38.652 166.396 38.364 166.396 37.992V36.624L166.648 37.164C166.396 37.812 166.012 38.31 165.496 38.658C164.992 39.006 164.392 39.18 163.696 39.18ZM173.832 39.18C173.196 39.18 172.626 39.06 172.122 38.82C171.63 38.568 171.24 38.232 170.952 37.812C170.676 37.392 170.538 36.918 170.538 36.39C170.538 35.742 170.706 35.232 171.042 34.86C171.378 34.476 171.924 34.2 172.68 34.032C173.436 33.864 174.45 33.78 175.722 33.78H176.622V35.076H175.74C174.996 35.076 174.402 35.112 173.958 35.184C173.514 35.256 173.196 35.382 173.004 35.562C172.824 35.73 172.734 35.97 172.734 36.282C172.734 36.678 172.872 37.002 173.148 37.254C173.424 37.506 173.808 37.632 174.3 37.632C174.696 37.632 175.044 37.542 175.344 37.362C175.656 37.17 175.902 36.912 176.082 36.588C176.262 36.264 176.352 35.892 176.352 35.472V33.402C176.352 32.802 176.22 32.37 175.956 32.106C175.692 31.842 175.248 31.71 174.624 31.71C174.276 31.71 173.898 31.752 173.49 31.836C173.094 31.92 172.674 32.064 172.23 32.268C172.002 32.376 171.798 32.406 171.618 32.358C171.45 32.31 171.318 32.214 171.222 32.07C171.126 31.914 171.078 31.746 171.078 31.566C171.078 31.386 171.126 31.212 171.222 31.044C171.318 30.864 171.48 30.732 171.708 30.648C172.26 30.42 172.788 30.258 173.292 30.162C173.808 30.066 174.276 30.018 174.696 30.018C175.56 30.018 176.268 30.15 176.82 30.414C177.384 30.678 177.804 31.08 178.08 31.62C178.356 32.148 178.494 32.832 178.494 33.672V37.992C178.494 38.364 178.404 38.652 178.224 38.856C178.044 39.048 177.786 39.144 177.45 39.144C177.114 39.144 176.85 39.048 176.658 38.856C176.478 38.652 176.388 38.364 176.388 37.992V37.128H176.532C176.448 37.548 176.28 37.914 176.028 38.226C175.788 38.526 175.482 38.76 175.11 38.928C174.738 39.096 174.312 39.18 173.832 39.18ZM186.96 39.144C186.624 39.144 186.366 39.048 186.186 38.856C186.006 38.664 185.916 38.4 185.916 38.064V27.246C185.916 26.898 186.012 26.634 186.204 26.454C186.396 26.262 186.66 26.166 186.996 26.166C187.296 26.166 187.53 26.226 187.698 26.346C187.878 26.454 188.04 26.646 188.184 26.922L192.63 35.148H192.054L196.5 26.922C196.644 26.646 196.8 26.454 196.968 26.346C197.136 26.226 197.37 26.166 197.67 26.166C198.006 26.166 198.264 26.262 198.444 26.454C198.624 26.634 198.714 26.898 198.714 27.246V38.064C198.714 38.4 198.624 38.664 198.444 38.856C198.276 39.048 198.018 39.144 197.67 39.144C197.334 39.144 197.076 39.048 196.896 38.856C196.716 38.664 196.626 38.4 196.626 38.064V29.73H197.022L193.242 36.624C193.122 36.828 192.996 36.978 192.864 37.074C192.732 37.17 192.552 37.218 192.324 37.218C192.096 37.218 191.91 37.17 191.766 37.074C191.622 36.966 191.496 36.816 191.388 36.624L187.572 29.712H188.004V38.064C188.004 38.4 187.914 38.664 187.734 38.856C187.566 39.048 187.308 39.144 186.96 39.144ZM204.189 39.18C203.553 39.18 202.983 39.06 202.479 38.82C201.987 38.568 201.597 38.232 201.309 37.812C201.033 37.392 200.895 36.918 200.895 36.39C200.895 35.742 201.063 35.232 201.399 34.86C201.735 34.476 202.281 34.2 203.037 34.032C203.793 33.864 204.807 33.78 206.079 33.78H206.979V35.076H206.097C205.353 35.076 204.759 35.112 204.315 35.184C203.871 35.256 203.553 35.382 203.361 35.562C203.181 35.73 203.091 35.97 203.091 36.282C203.091 36.678 203.229 37.002 203.505 37.254C203.781 37.506 204.165 37.632 204.657 37.632C205.053 37.632 205.401 37.542 205.701 37.362C206.013 37.17 206.259 36.912 206.439 36.588C206.619 36.264 206.709 35.892 206.709 35.472V33.402C206.709 32.802 206.577 32.37 206.313 32.106C206.049 31.842 205.605 31.71 204.981 31.71C204.633 31.71 204.255 31.752 203.847 31.836C203.451 31.92 203.031 32.064 202.587 32.268C202.359 32.376 202.155 32.406 201.975 32.358C201.807 32.31 201.675 32.214 201.579 32.07C201.483 31.914 201.435 31.746 201.435 31.566C201.435 31.386 201.483 31.212 201.579 31.044C201.675 30.864 201.837 30.732 202.065 30.648C202.617 30.42 203.145 30.258 203.649 30.162C204.165 30.066 204.633 30.018 205.053 30.018C205.917 30.018 206.625 30.15 207.177 30.414C207.741 30.678 208.161 31.08 208.437 31.62C208.713 32.148 208.851 32.832 208.851 33.672V37.992C208.851 38.364 208.761 38.652 208.581 38.856C208.401 39.048 208.143 39.144 207.807 39.144C207.471 39.144 207.207 39.048 207.015 38.856C206.835 38.652 206.745 38.364 206.745 37.992V37.128H206.889C206.805 37.548 206.637 37.914 206.385 38.226C206.145 38.526 205.839 38.76 205.467 38.928C205.095 39.096 204.669 39.18 204.189 39.18ZM212.251 39.144C211.891 39.144 211.615 39.048 211.423 38.856C211.231 38.652 211.135 38.364 211.135 37.992V31.188C211.135 30.816 211.231 30.534 211.423 30.342C211.615 30.15 211.885 30.054 212.233 30.054C212.581 30.054 212.851 30.15 213.043 30.342C213.235 30.534 213.331 30.816 213.331 31.188V32.412L213.133 31.962C213.397 31.326 213.805 30.846 214.357 30.522C214.921 30.186 215.557 30.018 216.265 30.018C216.973 30.018 217.555 30.15 218.011 30.414C218.467 30.678 218.809 31.08 219.037 31.62C219.265 32.148 219.379 32.82 219.379 33.636V37.992C219.379 38.364 219.283 38.652 219.091 38.856C218.899 39.048 218.623 39.144 218.263 39.144C217.903 39.144 217.621 39.048 217.417 38.856C217.225 38.652 217.129 38.364 217.129 37.992V33.744C217.129 33.06 216.997 32.562 216.733 32.25C216.481 31.938 216.085 31.782 215.545 31.782C214.885 31.782 214.357 31.992 213.961 32.412C213.577 32.82 213.385 33.366 213.385 34.05V37.992C213.385 38.76 213.007 39.144 212.251 39.144ZM225.048 39.18C224.28 39.18 223.602 38.994 223.014 38.622C222.438 38.25 221.988 37.722 221.664 37.038C221.34 36.342 221.178 35.526 221.178 34.59C221.178 33.642 221.34 32.832 221.664 32.16C221.988 31.476 222.438 30.948 223.014 30.576C223.602 30.204 224.28 30.018 225.048 30.018C225.78 30.018 226.416 30.198 226.956 30.558C227.508 30.918 227.88 31.392 228.072 31.98H227.874V27.3C227.874 26.928 227.97 26.646 228.162 26.454C228.354 26.262 228.63 26.166 228.99 26.166C229.35 26.166 229.626 26.262 229.818 26.454C230.022 26.646 230.124 26.928 230.124 27.3V37.992C230.124 38.364 230.028 38.652 229.836 38.856C229.644 39.048 229.368 39.144 229.008 39.144C228.648 39.144 228.372 39.048 228.18 38.856C227.988 38.652 227.892 38.364 227.892 37.992V36.588L228.09 37.128C227.91 37.752 227.544 38.25 226.992 38.622C226.44 38.994 225.792 39.18 225.048 39.18ZM225.678 37.47C226.122 37.47 226.512 37.362 226.848 37.146C227.184 36.93 227.442 36.612 227.622 36.192C227.814 35.76 227.91 35.226 227.91 34.59C227.91 33.63 227.706 32.916 227.298 32.448C226.89 31.968 226.35 31.728 225.678 31.728C225.234 31.728 224.844 31.836 224.508 32.052C224.172 32.256 223.908 32.574 223.716 33.006C223.536 33.426 223.446 33.954 223.446 34.59C223.446 35.538 223.65 36.258 224.058 36.75C224.466 37.23 225.006 37.47 225.678 37.47ZM235.355 39.18C234.719 39.18 234.149 39.06 233.645 38.82C233.153 38.568 232.763 38.232 232.475 37.812C232.199 37.392 232.061 36.918 232.061 36.39C232.061 35.742 232.229 35.232 232.565 34.86C232.901 34.476 233.447 34.2 234.203 34.032C234.959 33.864 235.973 33.78 237.245 33.78H238.145V35.076H237.263C236.519 35.076 235.925 35.112 235.481 35.184C235.037 35.256 234.719 35.382 234.527 35.562C234.347 35.73 234.257 35.97 234.257 36.282C234.257 36.678 234.395 37.002 234.671 37.254C234.947 37.506 235.331 37.632 235.823 37.632C236.219 37.632 236.567 37.542 236.867 37.362C237.179 37.17 237.425 36.912 237.605 36.588C237.785 36.264 237.875 35.892 237.875 35.472V33.402C237.875 32.802 237.743 32.37 237.479 32.106C237.215 31.842 236.771 31.71 236.147 31.71C235.799 31.71 235.421 31.752 235.013 31.836C234.617 31.92 234.197 32.064 233.753 32.268C233.525 32.376 233.321 32.406 233.141 32.358C232.973 32.31 232.841 32.214 232.745 32.07C232.649 31.914 232.601 31.746 232.601 31.566C232.601 31.386 232.649 31.212 232.745 31.044C232.841 30.864 233.003 30.732 233.231 30.648C233.783 30.42 234.311 30.258 234.815 30.162C235.331 30.066 235.799 30.018 236.219 30.018C237.083 30.018 237.791 30.15 238.343 30.414C238.907 30.678 239.327 31.08 239.603 31.62C239.879 32.148 240.017 32.832 240.017 33.672V37.992C240.017 38.364 239.927 38.652 239.747 38.856C239.567 39.048 239.309 39.144 238.973 39.144C238.637 39.144 238.373 39.048 238.181 38.856C238.001 38.652 237.911 38.364 237.911 37.992V37.128H238.055C237.971 37.548 237.803 37.914 237.551 38.226C237.311 38.526 237.005 38.76 236.633 38.928C236.261 39.096 235.835 39.18 235.355 39.18ZM246.405 42.42C245.757 42.42 245.127 42.36 244.515 42.24C243.915 42.12 243.369 41.934 242.877 41.682C242.649 41.562 242.493 41.418 242.409 41.25C242.337 41.082 242.313 40.908 242.337 40.728C242.373 40.56 242.445 40.41 242.553 40.278C242.673 40.146 242.817 40.056 242.985 40.008C243.153 39.96 243.327 39.984 243.507 40.08C244.035 40.344 244.533 40.512 245.001 40.584C245.481 40.668 245.889 40.71 246.225 40.71C247.029 40.71 247.629 40.512 248.025 40.116C248.433 39.732 248.637 39.156 248.637 38.388V36.768H248.799C248.619 37.38 248.241 37.872 247.665 38.244C247.101 38.604 246.459 38.784 245.739 38.784C244.947 38.784 244.257 38.604 243.669 38.244C243.081 37.872 242.625 37.356 242.301 36.696C241.977 36.036 241.815 35.268 241.815 34.392C241.815 33.732 241.905 33.138 242.085 32.61C242.277 32.07 242.541 31.608 242.877 31.224C243.225 30.84 243.639 30.546 244.119 30.342C244.611 30.126 245.151 30.018 245.739 30.018C246.483 30.018 247.131 30.204 247.683 30.576C248.247 30.936 248.613 31.416 248.781 32.016L248.601 32.466V31.188C248.601 30.816 248.697 30.534 248.889 30.342C249.093 30.15 249.369 30.054 249.717 30.054C250.077 30.054 250.353 30.15 250.545 30.342C250.737 30.534 250.833 30.816 250.833 31.188V38.118C250.833 39.546 250.455 40.62 249.699 41.34C248.943 42.06 247.845 42.42 246.405 42.42ZM246.351 37.074C246.819 37.074 247.221 36.966 247.557 36.75C247.893 36.534 248.151 36.228 248.331 35.832C248.523 35.424 248.619 34.944 248.619 34.392C248.619 33.564 248.415 32.916 248.007 32.448C247.599 31.968 247.047 31.728 246.351 31.728C245.883 31.728 245.481 31.836 245.145 32.052C244.809 32.268 244.545 32.574 244.353 32.97C244.173 33.366 244.083 33.84 244.083 34.392C244.083 35.22 244.287 35.874 244.695 36.354C245.103 36.834 245.655 37.074 246.351 37.074ZM256.35 39.18C255.618 39.18 255.012 39.048 254.532 38.784C254.052 38.508 253.692 38.1 253.452 37.56C253.224 37.02 253.11 36.348 253.11 35.544V31.188C253.11 30.804 253.206 30.522 253.398 30.342C253.59 30.15 253.866 30.054 254.226 30.054C254.586 30.054 254.862 30.15 255.054 30.342C255.258 30.522 255.36 30.804 255.36 31.188V35.58C255.36 36.204 255.486 36.666 255.738 36.966C255.99 37.266 256.392 37.416 256.944 37.416C257.544 37.416 258.036 37.212 258.42 36.804C258.804 36.384 258.996 35.832 258.996 35.148V31.188C258.996 30.804 259.092 30.522 259.284 30.342C259.476 30.15 259.752 30.054 260.112 30.054C260.472 30.054 260.748 30.15 260.94 30.342C261.144 30.522 261.246 30.804 261.246 31.188V37.992C261.246 38.76 260.88 39.144 260.148 39.144C259.8 39.144 259.53 39.048 259.338 38.856C259.146 38.652 259.05 38.364 259.05 37.992V36.624L259.302 37.164C259.05 37.812 258.666 38.31 258.15 38.658C257.646 39.006 257.046 39.18 256.35 39.18ZM266.486 39.18C265.85 39.18 265.28 39.06 264.776 38.82C264.284 38.568 263.894 38.232 263.606 37.812C263.33 37.392 263.192 36.918 263.192 36.39C263.192 35.742 263.36 35.232 263.696 34.86C264.032 34.476 264.578 34.2 265.334 34.032C266.09 33.864 267.104 33.78 268.376 33.78H269.276V35.076H268.394C267.65 35.076 267.056 35.112 266.612 35.184C266.168 35.256 265.85 35.382 265.658 35.562C265.478 35.73 265.388 35.97 265.388 36.282C265.388 36.678 265.526 37.002 265.802 37.254C266.078 37.506 266.462 37.632 266.954 37.632C267.35 37.632 267.698 37.542 267.998 37.362C268.31 37.17 268.556 36.912 268.736 36.588C268.916 36.264 269.006 35.892 269.006 35.472V33.402C269.006 32.802 268.874 32.37 268.61 32.106C268.346 31.842 267.902 31.71 267.278 31.71C266.93 31.71 266.552 31.752 266.144 31.836C265.748 31.92 265.328 32.064 264.884 32.268C264.656 32.376 264.452 32.406 264.272 32.358C264.104 32.31 263.972 32.214 263.876 32.07C263.78 31.914 263.732 31.746 263.732 31.566C263.732 31.386 263.78 31.212 263.876 31.044C263.972 30.864 264.134 30.732 264.362 30.648C264.914 30.42 265.442 30.258 265.946 30.162C266.462 30.066 266.93 30.018 267.35 30.018C268.214 30.018 268.922 30.15 269.474 30.414C270.038 30.678 270.458 31.08 270.734 31.62C271.01 32.148 271.148 32.832 271.148 33.672V37.992C271.148 38.364 271.058 38.652 270.878 38.856C270.698 39.048 270.44 39.144 270.104 39.144C269.768 39.144 269.504 39.048 269.312 38.856C269.132 38.652 269.042 38.364 269.042 37.992V37.128H269.186C269.102 37.548 268.934 37.914 268.682 38.226C268.442 38.526 268.136 38.76 267.764 38.928C267.392 39.096 266.966 39.18 266.486 39.18ZM274.584 39.144C274.212 39.144 273.924 39.048 273.72 38.856C273.528 38.652 273.432 38.364 273.432 37.992V31.188C273.432 30.816 273.528 30.534 273.72 30.342C273.912 30.15 274.182 30.054 274.53 30.054C274.878 30.054 275.148 30.15 275.34 30.342C275.532 30.534 275.628 30.816 275.628 31.188V32.322H275.448C275.616 31.602 275.946 31.056 276.438 30.684C276.93 30.312 277.584 30.09 278.4 30.018C278.652 29.994 278.85 30.06 278.994 30.216C279.15 30.36 279.24 30.588 279.264 30.9C279.288 31.2 279.216 31.446 279.048 31.638C278.892 31.818 278.652 31.926 278.328 31.962L277.932 31.998C277.2 32.07 276.648 32.298 276.276 32.682C275.904 33.054 275.718 33.582 275.718 34.266V37.992C275.718 38.364 275.622 38.652 275.43 38.856C275.238 39.048 274.956 39.144 274.584 39.144ZM281.597 39.126C281.237 39.126 280.961 39.018 280.769 38.802C280.577 38.586 280.481 38.286 280.481 37.902V31.296C280.481 30.9 280.577 30.6 280.769 30.396C280.961 30.18 281.237 30.072 281.597 30.072C281.957 30.072 282.233 30.18 282.425 30.396C282.629 30.6 282.731 30.9 282.731 31.296V37.902C282.731 38.286 282.635 38.586 282.443 38.802C282.251 39.018 281.969 39.126 281.597 39.126ZM281.597 28.398C281.177 28.398 280.847 28.296 280.607 28.092C280.379 27.876 280.265 27.582 280.265 27.21C280.265 26.826 280.379 26.532 280.607 26.328C280.847 26.124 281.177 26.022 281.597 26.022C282.029 26.022 282.359 26.124 282.587 26.328C282.815 26.532 282.929 26.826 282.929 27.21C282.929 27.582 282.815 27.876 282.587 28.092C282.359 28.296 282.029 28.398 281.597 28.398ZM286.436 40.926C286.28 41.118 286.112 41.226 285.932 41.25C285.764 41.286 285.614 41.256 285.482 41.16C285.35 41.064 285.278 40.926 285.266 40.746C285.254 40.578 285.332 40.392 285.5 40.188C285.74 39.888 285.902 39.588 285.986 39.288C286.07 38.988 286.112 38.718 286.112 38.478L286.202 39.09C285.782 39.09 285.44 38.97 285.176 38.73C284.924 38.478 284.798 38.148 284.798 37.74C284.798 37.356 284.918 37.044 285.158 36.804C285.398 36.552 285.722 36.426 286.13 36.426C286.55 36.426 286.88 36.57 287.12 36.858C287.36 37.134 287.48 37.536 287.48 38.064C287.48 38.352 287.45 38.652 287.39 38.964C287.342 39.264 287.24 39.576 287.084 39.9C286.94 40.236 286.724 40.578 286.436 40.926ZM296.058 39C295.746 39 295.5 38.916 295.32 38.748C295.152 38.568 295.068 38.328 295.068 38.028C295.068 37.716 295.152 37.482 295.32 37.326C295.5 37.17 295.746 37.092 296.058 37.092H298.074V28.254H299.19L296.544 29.856C296.316 29.988 296.1 30.042 295.896 30.018C295.704 29.982 295.536 29.898 295.392 29.766C295.26 29.622 295.17 29.454 295.122 29.262C295.074 29.07 295.086 28.878 295.158 28.686C295.242 28.482 295.398 28.314 295.626 28.182L298.11 26.688C298.35 26.544 298.59 26.424 298.83 26.328C299.07 26.22 299.292 26.166 299.496 26.166C299.748 26.166 299.958 26.238 300.126 26.382C300.294 26.514 300.378 26.736 300.378 27.048V37.092H302.214C302.526 37.092 302.766 37.17 302.934 37.326C303.114 37.482 303.204 37.716 303.204 38.028C303.204 38.34 303.114 38.58 302.934 38.748C302.766 38.916 302.526 39 302.214 39H296.058ZM308.453 39.18C307.937 39.18 307.403 39.102 306.851 38.946C306.299 38.778 305.783 38.532 305.303 38.208C305.111 38.088 304.985 37.932 304.925 37.74C304.865 37.548 304.853 37.362 304.889 37.182C304.937 36.99 305.021 36.828 305.141 36.696C305.273 36.552 305.435 36.468 305.627 36.444C305.819 36.408 306.029 36.456 306.257 36.588C306.665 36.828 307.049 36.996 307.409 37.092C307.769 37.188 308.129 37.236 308.489 37.236C309.185 37.236 309.773 37.074 310.253 36.75C310.733 36.426 311.093 35.94 311.333 35.292C311.585 34.632 311.711 33.822 311.711 32.862V31.512H311.927C311.843 32.112 311.645 32.634 311.333 33.078C311.021 33.522 310.625 33.864 310.145 34.104C309.665 34.332 309.131 34.446 308.543 34.446C307.823 34.446 307.175 34.272 306.599 33.924C306.035 33.576 305.591 33.096 305.267 32.484C304.943 31.86 304.781 31.158 304.781 30.378C304.781 29.55 304.955 28.818 305.303 28.182C305.663 27.546 306.161 27.048 306.797 26.688C307.433 26.316 308.159 26.13 308.975 26.13C310.031 26.13 310.925 26.376 311.657 26.868C312.389 27.36 312.947 28.08 313.331 29.028C313.715 29.964 313.907 31.098 313.907 32.43C313.907 33.51 313.781 34.47 313.529 35.31C313.289 36.138 312.935 36.84 312.467 37.416C311.999 37.992 311.423 38.43 310.739 38.73C310.067 39.03 309.305 39.18 308.453 39.18ZM309.119 32.61C309.551 32.61 309.929 32.514 310.253 32.322C310.589 32.118 310.847 31.842 311.027 31.494C311.207 31.134 311.297 30.726 311.297 30.27C311.297 29.802 311.207 29.394 311.027 29.046C310.847 28.698 310.589 28.428 310.253 28.236C309.929 28.044 309.551 27.948 309.119 27.948C308.687 27.948 308.309 28.044 307.985 28.236C307.661 28.428 307.403 28.698 307.211 29.046C307.031 29.394 306.941 29.802 306.941 30.27C306.941 30.726 307.031 31.134 307.211 31.494C307.403 31.842 307.661 32.118 307.985 32.322C308.309 32.514 308.687 32.61 309.119 32.61ZM320.236 39.18C319.252 39.18 318.406 39.042 317.698 38.766C317.002 38.478 316.462 38.064 316.078 37.524C315.706 36.984 315.52 36.336 315.52 35.58C315.52 34.98 315.64 34.452 315.88 33.996C316.132 33.528 316.474 33.15 316.906 32.862C317.338 32.574 317.83 32.394 318.382 32.322V32.7C317.614 32.532 316.996 32.166 316.528 31.602C316.072 31.026 315.844 30.342 315.844 29.55C315.844 28.83 316.024 28.218 316.384 27.714C316.744 27.198 317.254 26.808 317.914 26.544C318.574 26.268 319.348 26.13 320.236 26.13C321.136 26.13 321.916 26.268 322.576 26.544C323.236 26.808 323.746 27.198 324.106 27.714C324.466 28.218 324.646 28.83 324.646 29.55C324.646 30.078 324.538 30.564 324.322 31.008C324.118 31.452 323.824 31.818 323.44 32.106C323.068 32.394 322.63 32.586 322.126 32.682V32.322C322.966 32.442 323.644 32.796 324.16 33.384C324.688 33.96 324.952 34.692 324.952 35.58C324.952 36.336 324.76 36.984 324.376 37.524C324.004 38.064 323.464 38.478 322.756 38.766C322.06 39.042 321.22 39.18 320.236 39.18ZM320.236 37.38C321.088 37.38 321.73 37.218 322.162 36.894C322.594 36.558 322.81 36.066 322.81 35.418C322.81 34.77 322.594 34.284 322.162 33.96C321.73 33.636 321.088 33.474 320.236 33.474C319.396 33.474 318.754 33.636 318.31 33.96C317.878 34.284 317.662 34.77 317.662 35.418C317.662 36.066 317.878 36.558 318.31 36.894C318.754 37.218 319.396 37.38 320.236 37.38ZM320.236 31.674C320.716 31.674 321.124 31.602 321.46 31.458C321.796 31.302 322.054 31.08 322.234 30.792C322.414 30.504 322.504 30.168 322.504 29.784C322.504 29.208 322.3 28.758 321.892 28.434C321.496 28.098 320.944 27.93 320.236 27.93C319.528 27.93 318.976 28.098 318.58 28.434C318.184 28.758 317.986 29.208 317.986 29.784C317.986 30.372 318.184 30.834 318.58 31.17C318.976 31.506 319.528 31.674 320.236 31.674Z" fill="white"/>
<g clip-path="url(#clip2_1201_1435)">
<path fill-rule="evenodd" clip-rule="evenodd" d="M335.22 28.7141C335.363 28.5767 335.554 28.5 335.752 28.5C335.95 28.5 336.14 28.5767 336.283 28.7141L340.78 32.983C340.849 33.0499 340.905 33.1302 340.943 33.219C340.981 33.3079 341 33.4035 341 33.5C341 33.5966 340.981 33.6921 340.943 33.781C340.905 33.8698 340.849 33.9501 340.78 34.017L336.283 38.286C336.141 38.4234 335.95 38.5001 335.752 38.5001C335.554 38.5001 335.363 38.4234 335.22 38.286C335.151 38.2191 335.095 38.1388 335.057 38.0499C335.02 37.9611 335 37.8655 335 37.769C335 37.6724 335.02 37.5769 335.057 37.488C335.095 37.3992 335.151 37.3189 335.22 37.2519L339.185 33.5L335.22 29.7481C335.151 29.6812 335.095 29.6009 335.057 29.5121C335.019 29.4232 335 29.3277 335 29.2311C335 29.1345 335.019 29.039 335.057 28.9501C335.095 28.8613 335.151 28.781 335.22 28.7141Z" fill="white"/>
</g>
<defs>
<clipPath id="clip0_1201_1435">
<rect width="73" height="40" fill="white" transform="translate(0 3)"/>
</clipPath>
<clipPath id="clip1_1201_1435">
<rect width="24" height="24" fill="white" transform="translate(113 11)"/>
</clipPath>
<clipPath id="clip2_1201_1435">
<rect width="16" height="16" fill="white" transform="translate(330 25.5)"/>
</clipPath>
</defs>
</svg>
