<svg width="14" height="17" viewBox="0 0 14 17" fill="none" xmlns="http://www.w3.org/2000/svg">
<path fill-rule="evenodd" clip-rule="evenodd" d="M10.586 15.914C10.8657 16.1936 11.222 16.384 11.6099 16.4612C11.9978 16.5383 12.3999 16.4987 12.7653 16.3474C13.1307 16.196 13.443 15.9397 13.6628 15.6109C13.8826 15.2821 13.9999 14.8955 14 14.5V3.5C14 2.70435 13.6839 1.94129 13.1213 1.37868C12.5587 0.816071 11.7956 0.5 11 0.5H3C2.20435 0.5 1.44129 0.816071 0.87868 1.37868C0.316071 1.94129 0 2.70435 0 3.5V14.5C8.44486e-05 14.8955 0.117428 15.2821 0.337197 15.6109C0.556965 15.9397 0.869291 16.196 1.23469 16.3474C1.60009 16.4987 2.00216 16.5383 2.39006 16.4612C2.77797 16.384 3.1343 16.1936 3.414 15.914L7 12L10.586 15.914ZM2.337 14.869L5.894 10.987C6.03453 10.8336 6.20542 10.7111 6.39582 10.6274C6.58623 10.5436 6.79198 10.5003 7 10.5003C7.20802 10.5003 7.41377 10.5436 7.60418 10.6274C7.79458 10.7111 7.96547 10.8336 8.106 10.987L11.663 14.869C11.7346 14.9343 11.8236 14.9774 11.9193 14.9931C12.0149 15.0087 12.113 14.9962 12.2017 14.9571C12.2904 14.9181 12.3658 14.854 12.4187 14.7729C12.4717 14.6917 12.4999 14.5969 12.5 14.5V3.5C12.5 3.10218 12.342 2.72064 12.0607 2.43934C11.7794 2.15804 11.3978 2 11 2H3C2.60218 2 2.22064 2.15804 1.93934 2.43934C1.65804 2.72064 1.5 3.10218 1.5 3.5V14.5C1.50007 14.5969 1.5283 14.6917 1.58126 14.7729C1.63422 14.854 1.70963 14.9181 1.7983 14.9571C1.88698 14.9962 1.9851 15.0087 2.08074 14.9931C2.17638 14.9774 2.26541 14.9343 2.337 14.869Z" fill="#7B1FA2"/>
</svg>
